<?xml version="1.0" standalone="no"?>
<!DOCTYPE svg PUBLIC "-//W3C//DTD SVG 20010904//EN"
 "http://www.w3.org/TR/2001/REC-SVG-20010904/DTD/svg10.dtd">
<svg version="1.0" xmlns="http://www.w3.org/2000/svg"
 width="1438.000000pt" height="1055.000000pt" viewBox="0 0 1438.000000 1055.000000"
 preserveAspectRatio="xMidYMid meet">

<g transform="translate(0.000000,1055.000000) scale(0.100000,-0.100000)"
fill="#000000" stroke="none">
<path d="M0 5275 l0 -5275 7190 0 7190 0 0 5275 0 5275 -7190 0 -7190 0 0
-5275z m7636 3946 c305 -43 508 -89 759 -174 543 -184 1011 -460 1430 -843
303 -278 614 -669 786 -992 16 -29 40 -73 54 -98 14 -25 22 -50 19 -56 -4 -6
-3 -8 3 -5 16 10 74 -123 62 -144 -13 -24 -11 -38 2 -16 10 16 14 12 35 -34
14 -29 22 -59 19 -66 -3 -9 0 -11 7 -7 8 5 9 0 5 -15 -3 -13 -3 -20 1 -17 9 9
33 -54 25 -67 -4 -6 -1 -7 7 -2 9 5 10 2 5 -14 -3 -12 -2 -21 4 -21 13 0 41
-98 34 -118 -4 -9 -2 -13 4 -9 7 4 17 -19 27 -61 10 -37 22 -82 27 -99 6 -18
8 -36 5 -41 -2 -4 -1 -14 4 -22 4 -7 4 -24 -1 -37 -6 -15 -5 -31 1 -41 5 -10
10 -12 10 -4 0 6 5 12 11 12 7 0 9 -12 4 -36 -3 -20 -2 -34 2 -31 5 3 10 -7
11 -23 1 -16 7 -41 12 -55 6 -15 10 -36 9 -48 0 -20 -1 -20 -8 -3 -6 15 -9 11
-19 -21 -16 -53 -15 -65 3 -28 l13 30 1 -42 c1 -23 5 -53 11 -68 8 -20 6 -34
-9 -63 -19 -36 -19 -36 -24 -12 -3 14 -9 52 -12 85 -7 65 -7 62 -29 180 -27
144 -106 432 -137 502 -10 24 -19 51 -19 60 0 10 -8 27 -16 38 -15 19 -15 18
-8 -10 4 -16 8 -38 8 -47 0 -9 4 -14 8 -12 4 3 10 -8 14 -23 6 -26 31 -112 54
-188 28 -94 50 -199 44 -217 -4 -13 -2 -18 4 -14 6 3 10 -7 10 -27 0 -17 5
-60 11 -93 6 -34 9 -68 6 -77 -4 -8 -2 -18 4 -22 6 -3 11 -16 10 -28 0 -21 -1
-21 -12 3 -6 14 -14 27 -18 30 -14 11 -20 82 -8 96 10 12 10 15 -2 12 -10 -2
-14 7 -13 36 1 21 -2 33 -6 26 -9 -15 -23 67 -14 83 4 7 3 9 -1 4 -11 -9 -48
130 -41 150 3 8 1 11 -4 8 -6 -3 -10 0 -10 7 0 19 -72 245 -108 343 -27 73
-65 160 -110 255 -9 19 -17 37 -17 40 -1 6 -59 118 -83 162 -11 18 -34 60 -52
93 -101 183 -291 447 -399 555 -19 19 -26 24 -15 10 155 -192 304 -398 304
-420 0 -5 19 -40 42 -77 22 -38 41 -74 41 -80 0 -7 2 -11 5 -8 3 2 25 -35 50
-83 24 -48 48 -91 52 -97 4 -5 29 -57 54 -115 26 -58 51 -112 56 -122 26 -48
70 -179 64 -189 -5 -8 -3 -9 6 -4 10 6 12 4 7 -8 -3 -10 -3 -17 2 -17 12 0 63
-168 55 -181 -5 -8 -3 -9 6 -4 9 5 10 2 5 -14 -4 -13 -2 -21 5 -21 7 0 10 -7
6 -15 -3 -8 -2 -15 2 -15 11 0 35 -97 27 -110 -3 -5 -2 -10 3 -10 5 0 12 -12
15 -27 3 -16 10 -55 17 -88 7 -33 14 -69 15 -80 2 -11 8 -35 14 -53 5 -18 13
-65 16 -105 3 -40 10 -92 15 -117 14 -75 21 -197 10 -180 -8 13 -10 13 -10 -2
0 -9 6 -18 12 -20 14 -5 18 -263 5 -312 -7 -25 -6 -27 6 -14 8 8 17 23 20 34
2 10 5 2 6 -18 0 -21 -4 -38 -10 -38 -6 0 -9 -18 -8 -42 2 -24 1 -72 -1 -108
l-3 -65 -7 45 c-6 36 -8 26 -7 -45 0 -64 -4 -98 -16 -119 -9 -16 -13 -34 -10
-40 4 -5 10 -1 15 10 6 13 7 9 3 -15 -3 -18 -5 -44 -5 -58 0 -13 -4 -22 -8
-19 -5 3 -8 -9 -8 -27 0 -56 -12 -131 -29 -180 -9 -26 -14 -51 -11 -55 5 -8
-17 -107 -31 -142 -3 -8 -7 -22 -8 -30 -6 -46 -59 -209 -66 -204 -5 3 -6 -1
-4 -9 3 -7 -12 -63 -34 -123 -57 -159 -72 -194 -81 -189 -5 3 -6 -3 -4 -12 2
-10 -32 -90 -76 -178 -44 -88 -78 -152 -75 -142 3 11 1 16 -6 12 -6 -4 -8 -14
-5 -22 5 -12 -33 -81 -166 -300 -11 -18 -17 -33 -15 -33 3 0 36 47 73 105 37
58 69 105 71 105 6 0 -23 -48 -95 -159 -41 -65 -56 -81 -64 -70 -7 11 -8 9 -4
-6 5 -16 -17 -51 -82 -138 -409 -542 -900 -936 -1494 -1198 -49 -21 -92 -39
-96 -39 -4 0 44 28 107 61 136 73 294 169 288 176 -3 2 -13 0 -24 -6 -32 -18
-89 -42 -73 -31 8 6 79 50 157 98 357 218 704 522 916 804 72 96 125 178 115
178 -2 0 -68 -64 -148 -143 -80 -78 -174 -164 -210 -192 l-65 -49 90 99 c315
347 520 655 703 1055 90 196 215 615 256 855 10 55 20 107 23 115 2 8 6 38 8
65 2 28 9 95 15 150 5 55 13 204 16 330 5 185 3 258 -10 370 -44 360 -87 561
-198 915 -32 102 -80 220 -89 220 -5 0 -9 5 -9 10 0 13 -118 255 -170 348 -68
122 -186 298 -319 477 -113 150 -245 306 -225 265 3 -8 -44 35 -107 95 -62 61
-116 112 -119 115 -53 50 -335 259 -446 332 -366 239 -798 412 -1260 503 -221
44 -294 52 -548 65 -228 12 -397 7 -521 -15 -44 -8 -127 -22 -185 -31 -299
-45 -668 -159 -963 -297 -290 -136 -643 -368 -857 -562 -137 -125 -324 -308
-370 -365 -30 -36 -57 -67 -60 -70 -13 -10 -194 -256 -239 -325 -25 -38 -48
-72 -51 -75 -3 -3 -34 -63 -70 -133 -36 -70 -73 -137 -82 -147 -10 -11 -18
-24 -18 -30 0 -6 -5 -8 -12 -4 -7 5 -8 3 -3 -5 10 -17 -35 -112 -48 -104 -6 3
-7 1 -4 -4 8 -13 -30 -103 -43 -103 -5 0 -6 -7 -3 -17 5 -12 3 -14 -7 -8 -10
6 -12 3 -8 -13 4 -13 2 -20 -4 -16 -5 3 -8 0 -7 -7 1 -8 -4 -36 -11 -62 -9
-35 -15 -45 -22 -35 -7 9 -8 7 -5 -10 3 -14 1 -20 -5 -16 -7 5 -9 -2 -4 -20 5
-19 3 -26 -4 -21 -7 4 -9 -2 -4 -19 4 -17 2 -26 -6 -26 -7 0 -10 -7 -6 -16 3
-8 2 -12 -4 -9 -6 3 -10 0 -10 -7 0 -8 -7 -23 -16 -34 -8 -10 -13 -14 -11 -9
28 59 40 95 43 120 4 41 21 85 34 85 5 0 10 5 10 11 0 5 -4 8 -9 5 -10 -7 36
123 50 140 5 7 9 16 8 20 -4 22 2 35 13 28 6 -4 8 -3 5 3 -4 6 -2 25 4 42 8
23 16 30 27 26 12 -4 12 -3 3 8 -9 11 -6 27 13 69 17 38 20 55 12 55 -7 0 -13
-5 -12 -11 0 -6 -17 -47 -38 -91 -41 -87 -47 -99 -72 -160 -10 -26 -18 -35
-22 -25 -3 7 0 16 7 18 6 2 11 8 11 14 0 6 -9 3 -20 -7 -16 -14 -19 -26 -14
-51 3 -18 1 -41 -5 -51 -6 -10 -11 -13 -11 -6 0 6 -3 20 -6 30 -5 15 -4 15 5
3 9 -12 11 -11 11 8 0 12 -5 22 -10 22 -6 0 -4 13 5 30 9 17 13 36 9 42 -5 7
-3 8 6 3 10 -6 12 -4 7 8 -9 23 10 31 23 10 10 -16 11 -16 5 2 -4 11 -9 29
-11 40 l-4 20 8 -20 c8 -17 10 -13 14 20 3 22 1 42 -3 45 -30 20 14 147 94
273 21 32 37 62 37 68 0 23 112 199 123 192 6 -4 7 -1 3 6 -7 10 15 51 57 106
4 6 47 64 96 130 256 347 595 673 936 902 551 369 1175 589 1826 643 174 14
604 4 765 -19z m-476 -2260 c31 -10 85 -33 120 -51 71 -35 194 -119 187 -127
-3 -2 -31 9 -63 25 -158 80 -331 121 -430 103 -87 -16 -120 -56 -108 -131 l6
-39 63 24 c202 76 409 73 494 -6 12 -11 18 -26 15 -32 -4 -7 20 14 54 46 70
66 112 87 177 87 140 0 237 -158 250 -406 5 -96 -1 -137 -16 -113 -12 19 -11
32 2 24 7 -5 7 -1 1 11 -6 11 -20 60 -31 109 -35 153 -104 263 -176 281 -29 7
-76 -10 -100 -37 -17 -17 -16 -20 16 -46 125 -104 229 -242 229 -304 0 -26 -3
-30 -10 -19 -11 17 -13 9 -3 -15 5 -15 7 -15 18 5 11 20 13 14 18 -46 4 -38 3
-72 -2 -77 -5 -5 -7 2 -4 15 2 13 0 34 -5 47 l-9 25 -5 -27 c-3 -16 -1 -24 5
-20 7 4 8 -1 3 -13 -4 -10 -8 -23 -9 -29 -1 -5 33 -21 75 -35 77 -25 138 -61
138 -81 0 -6 10 -19 23 -29 19 -17 20 -21 9 -40 -7 -12 -11 -25 -7 -28 3 -4 9
-1 13 5 4 7 7 -6 7 -27 0 -21 -2 -34 -6 -28 -3 5 -9 -2 -13 -17 -4 -15 -5 -30
-1 -33 3 -3 5 3 5 13 0 10 3 16 6 12 13 -13 -51 -120 -109 -179 -83 -84 -208
-165 -322 -208 -38 -14 -28 -5 70 61 113 77 224 190 263 268 49 98 41 160 -23
187 -37 15 -79 19 -72 7 7 -11 -17 -136 -38 -203 -28 -88 -73 -169 -123 -219
-45 -45 -114 -77 -135 -64 -6 3 -7 1 -3 -5 3 -5 3 -12 -1 -15 -5 -2 -2 -2 5
-1 6 2 12 -2 13 -9 1 -7 3 -32 5 -57 3 -39 2 -43 -10 -27 -7 9 -17 17 -22 17
-4 0 -3 -5 4 -12 7 -7 12 -21 12 -33 0 -14 3 -16 8 -7 11 16 8 -77 -2 -100 -5
-10 -13 -15 -19 -11 -6 3 -7 1 -3 -6 8 -12 -4 -26 -49 -56 -25 -17 -47 -20
-135 -20 -104 1 -131 7 -235 50 -59 25 -165 89 -205 124 l-35 31 85 -39 c183
-83 350 -118 444 -91 57 16 77 38 83 92 7 71 -2 74 -103 39 -208 -71 -389 -60
-469 29 -18 20 -18 20 -52 -20 -123 -144 -300 -120 -375 50 -40 91 -42 103
-53 225 -3 37 -2 46 6 35 8 -12 9 -10 5 10 -11 56 -16 135 -7 115 5 -11 10
-32 10 -46 2 -48 43 -194 73 -257 39 -78 96 -132 141 -132 31 0 73 21 89 44 4
6 -28 45 -76 91 -83 80 -154 177 -148 203 2 8 -1 11 -7 7 -13 -7 -12 -11 -16
85 -1 41 2 84 8 95 9 17 8 18 -5 8 -12 -10 -15 -10 -15 2 0 8 5 15 10 15 6 0
7 3 4 7 -4 3 0 17 8 30 17 25 11 31 -10 9 -8 -7 -11 -17 -7 -21 12 -13 -84 4
-124 22 -22 9 -56 35 -76 56 -34 34 -36 40 -23 53 8 9 15 27 14 42 l-1 27 -8
-25 -8 -25 -1 27 c-1 14 -4 35 -7 45 -6 16 -5 16 9 -2 20 -25 22 -7 3 30 -15
28 -11 59 5 49 9 -5 11 1 13 38 2 27 111 143 178 189 64 43 216 124 223 117 2
-2 -40 -36 -93 -75 -152 -113 -235 -204 -262 -288 -7 -22 -16 -44 -20 -50 -13
-18 16 -79 46 -97 35 -20 86 -34 82 -22 -6 22 15 131 38 202 53 157 115 243
204 281 49 21 57 30 43 45 -11 10 -12 37 -2 30 5 -3 9 2 9 10 0 9 -4 16 -9 16
-5 0 -8 33 -6 74 4 105 31 138 145 180 28 11 175 -4 230 -23z m-3487 -21 c-3
-11 0 -20 6 -20 6 0 11 -9 11 -20 0 -28 -20 -25 -21 3 -1 20 -2 19 -14 -8 -19
-41 -19 -16 0 29 17 39 26 48 18 16z m-22 -107 c-12 -20 -14 -14 -5 12 4 9 9
14 11 11 3 -2 0 -13 -6 -23z m-33 -47 c-1 -19 -6 -32 -10 -30 -4 3 -8 -3 -8
-12 0 -14 -3 -15 -12 -6 -10 10 -10 14 0 21 12 7 18 24 21 54 1 4 3 7 6 7 3 0
5 -15 3 -34z m-25 -96 c-7 -27 -13 -25 -11 4 1 14 5 23 9 20 4 -2 5 -13 2 -24z
m32 -20 c3 -5 1 -10 -4 -10 -6 0 -11 5 -11 10 0 6 2 10 4 10 3 0 8 -4 11 -10z
m8 -33 c4 3 7 1 7 -5 0 -7 -5 -12 -11 -12 -6 0 -9 -6 -6 -14 3 -8 1 -16 -5
-18 -6 -2 -11 -17 -11 -33 0 -17 -2 -24 -4 -17 -4 10 -9 8 -19 -5 -7 -10 -14
-13 -14 -7 0 6 7 17 15 24 16 14 21 45 5 35 -6 -3 -7 1 -3 10 4 12 8 13 13 5
5 -8 9 -5 12 8 3 11 1 26 -6 33 -9 11 -8 11 5 1 9 -6 19 -9 22 -5z m-83 -62
c0 -5 -5 -3 -10 5 -8 12 -10 12 -10 1 0 -8 -2 -12 -5 -9 -3 3 -2 13 1 22 5 14
9 15 15 4 5 -7 9 -17 9 -23z m27 -117 c-3 -7 -5 -2 -5 12 0 14 2 19 5 13 2 -7
2 -19 0 -25z m-28 -123 c0 -5 -4 -3 -9 5 -5 8 -9 22 -9 30 0 16 17 -16 18 -35z
m58 13 c-3 -8 -6 -5 -6 6 -1 11 2 17 5 13 3 -3 4 -12 1 -19z m-26 -65 c-11
-21 -20 -34 -21 -30 0 4 7 21 15 37 8 16 12 37 9 47 -5 17 -5 17 6 1 8 -14 6
-26 -9 -55z m-74 35 c-3 -8 -6 -5 -6 6 -1 11 2 17 5 13 3 -3 4 -12 1 -19z
m4415 -33 c-6 -34 -13 -32 -10 4 1 16 5 28 9 26 3 -3 4 -16 1 -30z m3054 -41
c-4 -9 -9 -15 -11 -12 -3 3 -3 13 1 22 4 9 9 15 11 12 3 -3 3 -13 -1 -22z
m-7396 -20 c0 -9 -5 -12 -11 -8 -9 5 -10 -2 -6 -22 6 -26 6 -27 -5 -7 -8 17
-8 26 2 38 16 19 20 19 20 -1z m2917 -271 c-3 -10 -5 -2 -5 17 0 19 2 27 5 18
2 -10 2 -26 0 -35z m4530 -10 c-3 -10 -5 -4 -5 12 0 17 2 24 5 18 2 -7 2 -21
0 -30z m-7520 -15 c-3 -8 -6 -5 -6 6 -1 11 2 17 5 13 3 -3 4 -12 1 -19z m7442
-68 l-1 -25 -8 25 c-4 14 -8 32 -9 40 -1 13 0 13 9 0 5 -8 9 -26 9 -40z m70
-85 c-6 -30 -6 -70 -1 -100 12 -68 13 -127 2 -100 -4 11 -6 30 -3 42 2 11 0
30 -6 41 -16 30 -16 124 0 150 7 11 14 20 15 19 1 -1 -2 -25 -7 -52z m28 33
c-3 -8 -6 -5 -6 6 -1 11 2 17 5 13 3 -3 4 -12 1 -19z m-90 -55 c-3 -10 -5 -4
-5 12 0 17 2 24 5 18 2 -7 2 -21 0 -30z m88 28 c-3 -5 -1 -12 5 -16 5 -3 10
-16 10 -28 0 -20 -2 -19 -15 7 -18 33 -19 46 -4 46 5 0 8 -4 4 -9z m5 -108 c0
-22 -2 -25 -10 -13 -13 20 -13 40 0 40 6 0 10 -12 10 -27z m-83 -25 c-3 -8 -6
-5 -6 6 -1 11 2 17 5 13 3 -3 4 -12 1 -19z m112 -100 c0 -21 -4 -38 -9 -38 -6
0 -8 17 -5 43 4 31 3 37 -4 22 -5 -11 -10 -15 -10 -8 -1 6 -4 20 -7 30 -5 15
-4 15 5 3 9 -12 11 -9 12 15 l1 30 8 -30 c4 -16 8 -47 9 -67z m-29 -18 c0 -11
-4 -20 -9 -20 -5 0 -7 9 -4 20 3 11 7 20 9 20 2 0 4 -9 4 -20z m-33 -37 c-3
-10 -5 -2 -5 17 0 19 2 27 5 18 2 -10 2 -26 0 -35z m57 -77 c-4 -37 -9 -64
-12 -62 -2 3 -1 35 3 71 4 37 9 65 11 62 3 -2 2 -34 -2 -71z m-47 -8 c-2 -13
-4 -5 -4 17 -1 22 1 32 4 23 2 -10 2 -28 0 -40z m-70 -40 c-2 -13 -4 -3 -4 22
0 25 2 35 4 23 2 -13 2 -33 0 -45z m130 -5 c-3 -10 -5 -4 -5 12 0 17 2 24 5
18 2 -7 2 -21 0 -30z m-60 -100 c-3 -10 -5 -2 -5 17 0 19 2 27 5 18 2 -10 2
-26 0 -35z m30 15 c-3 -7 -5 -2 -5 12 0 14 2 19 5 13 2 -7 2 -19 0 -25z m-50
-150 c-2 -13 -4 -3 -4 22 0 25 2 35 4 23 2 -13 2 -33 0 -45z m20 -20 c-2 -18
-4 -6 -4 27 0 33 2 48 4 33 2 -15 2 -42 0 -60z m14 -158 c4 0 14 28 23 63 11
48 14 52 9 17 -3 -24 -11 -60 -18 -80 -11 -30 -14 -32 -21 -16 -7 19 -8 19
-15 0 -5 -11 -6 -1 -2 24 4 28 2 42 -6 42 -6 0 -12 -12 -12 -27 -1 -19 -3 -22
-6 -10 -3 10 1 39 9 65 l13 46 9 -62 c5 -34 12 -62 17 -62z m-54 -72 c-3 -8
-6 -5 -6 6 -1 11 2 17 5 13 3 -3 4 -12 1 -19z m20 -15 c-3 -10 -5 -4 -5 12 0
17 2 24 5 18 2 -7 2 -21 0 -30z m27 11 c3 -8 2 -12 -4 -9 -6 3 -10 10 -10 16
0 14 7 11 14 -7z m33 -26 c-3 -8 -6 -5 -6 6 -1 11 2 17 5 13 3 -3 4 -12 1 -19z
m-79 -38 c-1 -23 -4 -36 -8 -30 -6 10 -1 70 6 70 2 0 3 -18 2 -40z m70 -25
c-3 -3 -9 2 -12 12 -6 14 -5 15 5 6 7 -7 10 -15 7 -18z m-28 -6 c0 -14 -17
-10 -23 5 -4 10 -1 13 9 9 7 -3 14 -9 14 -14z m-36 -99 c11 -54 17 -105 12
-99 -3 3 -12 32 -21 65 l-15 59 4 -49 c3 -33 1 -44 -6 -35 -6 10 -7 4 -3 -18
4 -18 2 -34 -4 -38 -6 -3 -11 -17 -11 -31 0 -14 -5 -34 -10 -45 -7 -13 -7 -19
0 -19 5 0 13 19 17 43 6 37 7 39 14 17 10 -37 10 -52 -1 -45 -5 3 -11 3 -11
-2 -1 -4 -3 -23 -5 -41 -2 -18 -13 -53 -25 -79 -17 -37 -19 -50 -9 -67 8 -15
8 -30 1 -48 -5 -14 -7 -30 -3 -34 4 -5 -2 -2 -12 6 -18 14 -19 14 -6 -10 9
-16 9 -25 2 -28 -6 -2 -8 -10 -5 -19 4 -9 2 -14 -3 -11 -5 3 -10 -7 -10 -24
-1 -17 -7 -33 -13 -37 -7 -5 -11 -12 -10 -17 3 -12 -10 -65 -22 -86 -5 -10 -9
-26 -10 -35 0 -16 -2 -15 -10 2 -7 16 -8 14 -5 -12 3 -20 0 -36 -9 -43 -8 -7
-13 -16 -10 -20 3 -5 2 -16 -2 -26 -6 -16 -7 -16 -15 2 -6 14 -7 12 -3 -9 4
-18 1 -29 -9 -33 -8 -3 -12 -13 -9 -25 3 -10 0 -19 -6 -19 -6 0 -11 -6 -11
-14 0 -8 -13 -43 -29 -78 -80 -177 -92 -199 -103 -192 -7 4 -8 3 -4 -5 4 -6
-10 -42 -30 -81 -32 -59 -40 -68 -53 -57 -14 10 -14 10 -3 -5 11 -14 5 -29
-44 -109 -31 -51 -65 -100 -76 -111 -10 -10 -18 -21 -17 -25 1 -16 -113 -163
-122 -158 -5 3 -7 0 -4 -7 11 -30 -339 -418 -535 -594 -151 -134 -439 -346
-610 -448 -196 -117 -186 -121 15 -6 297 169 543 357 790 605 243 243 486 560
618 805 16 30 37 61 46 68 9 7 15 16 13 20 -5 12 30 82 38 77 4 -3 7 1 7 8 0
6 5 27 12 45 12 31 14 32 28 15 13 -17 13 -16 4 3 -9 18 -3 38 29 105 21 46
40 82 41 79 1 -3 3 -18 5 -34 4 -34 -74 -209 -89 -199 -6 3 -7 1 -3 -5 9 -14
-25 -83 -37 -75 -6 3 -7 1 -3 -5 10 -16 -12 -54 -26 -46 -6 4 -8 3 -4 -4 7
-11 -31 -92 -43 -92 -4 0 -8 -6 -8 -12 0 -18 -70 -130 -166 -268 -238 -340
-556 -665 -882 -901 -165 -120 -219 -156 -355 -234 -437 -254 -936 -426 -1450
-500 -133 -20 -427 -30 -485 -17 l-40 9 30 6 c17 3 98 11 180 17 303 22 770
116 970 195 49 19 35 16 -185 -40 -391 -101 -797 -142 -1165 -119 -138 9 -136
9 175 15 318 6 428 16 665 60 677 125 1279 411 1808 857 186 157 436 421 583
617 60 79 234 338 234 348 0 16 109 185 115 179 5 -4 5 -2 1 5 -10 18 25 86
37 71 6 -9 7 -7 3 5 -6 19 24 87 53 121 9 11 11 16 4 13 -6 -4 -2 15 10 42 11
28 24 48 29 45 4 -3 5 2 2 10 -3 9 5 25 19 38 20 19 23 27 15 42 -7 13 -7 17
0 12 5 -3 13 1 16 10 4 10 2 13 -6 8 -8 -5 -9 -2 -4 12 5 10 11 27 13 36 3 10
10 15 16 11 5 -3 7 -2 4 4 -8 13 52 193 64 193 5 0 9 5 9 11 0 5 -4 8 -9 5 -5
-4 0 22 10 56 11 35 27 84 35 110 8 26 13 50 12 55 -1 4 4 26 10 48 7 22 8 41
3 43 -10 3 -2 50 10 58 5 2 6 19 3 37 -5 25 -3 29 6 17 9 -12 11 -8 8 22 -2
20 -1 35 3 32 4 -2 8 13 8 33 0 21 1 51 1 68 l0 30 14 -26 c7 -13 16 -40 20
-59z m17 23 c-12 -20 -14 -14 -5 12 4 9 9 14 11 11 3 -2 0 -13 -6 -23z m-23
-128 c-3 -14 -1 -25 3 -25 5 0 9 -4 9 -10 0 -15 -17 -12 -23 4 -6 15 2 56 10
56 3 0 3 -11 1 -25z m-3521 -125 c95 -41 149 -135 141 -243 -6 -72 -23 -111
-70 -157 -87 -87 -251 -93 -342 -12 -61 55 -93 154 -76 238 33 158 195 239
347 174z m-2041 -16 c72 -44 108 -108 112 -199 4 -62 0 -79 -22 -123 -42 -84
-125 -133 -218 -131 l-53 2 66 7 c37 5 77 13 89 20 33 18 19 21 -25 5 -22 -8
-58 -14 -80 -13 -37 0 -36 1 13 8 29 4 68 15 87 24 35 17 54 36 36 36 -5 0
-13 -4 -16 -10 -3 -5 -11 -10 -16 -10 -6 0 3 12 21 26 41 35 62 77 70 144 l7
55 1 -45 c2 -44 -25 -121 -47 -134 -6 -4 -11 -12 -11 -18 0 -20 33 17 51 57
19 41 24 99 13 153 -9 43 -69 111 -118 133 -23 10 -35 19 -27 19 28 0 100 -50
121 -85 22 -36 30 -42 30 -25 0 17 -71 90 -104 107 -17 9 -62 20 -101 24 l-70
7 71 -2 c60 -1 79 -6 120 -32z m1197 17 c118 -54 174 -190 128 -311 -93 -247
-454 -195 -478 70 -9 100 54 203 150 242 58 23 148 23 200 -1z m4352 -20 c-4
-17 -10 -33 -14 -36 -5 -2 -3 13 2 35 13 46 22 46 12 1z m-5764 15 c-13 -7
-20 -15 -14 -17 5 -2 -11 -19 -36 -37 l-46 -33 39 36 c22 19 35 35 30 35 -20
0 -57 -34 -85 -78 -16 -25 -29 -41 -29 -35 0 36 117 143 155 142 6 0 -1 -6
-14 -13z m437 -216 c-22 -124 -43 -228 -47 -232 -5 -6 57 362 78 461 1 2 3 2
5 0 2 -2 -14 -105 -36 -229z m57 78 c-26 -147 -39 -198 -30 -118 10 77 47 271
52 266 2 -2 -7 -69 -22 -148z m125 -29 c57 -139 76 -177 83 -162 4 10 38 90
76 178 53 125 72 161 88 163 17 3 22 -5 31 -50 l11 -53 -4 55 c-2 30 -1 46 2
35 l6 -20 7 20 c6 16 10 11 18 -25 l12 -45 -6 45 c-3 24 -2 41 2 37 11 -10 92
-467 84 -467 -4 0 -12 24 -18 53 l-11 52 4 -55 4 -55 -14 50 -15 50 6 -50 c7
-57 -1 -57 -16 1 l-10 39 6 -45 c6 -49 -4 -49 -17 2 -8 32 -9 32 -4 -6 2 -22
1 -35 -4 -30 -5 5 -19 69 -32 142 -12 72 -25 132 -28 132 -3 0 -32 -63 -65
-139 -56 -134 -60 -139 -87 -137 -16 0 -29 1 -29 1 0 0 14 34 30 75 33 80 47
102 36 58 -9 -37 -1 -36 13 2 7 23 7 29 -1 24 -11 -7 -10 0 6 51 4 11 -7 -7
-23 -40 -16 -33 -30 -53 -31 -45 0 8 -12 -5 -25 -30 l-23 -45 -21 49 c-12 27
-20 54 -18 59 2 6 11 -8 20 -31 9 -23 19 -42 22 -42 2 0 0 10 -5 23 -71 176
-132 321 -138 327 -2 3 -2 -8 2 -23 5 -20 3 -27 -5 -22 -8 5 -9 1 -4 -14 4
-12 2 -21 -4 -21 -6 0 -2 -20 9 -46 25 -58 25 -82 -1 -29 -10 22 -18 33 -18
25 0 -8 14 -42 30 -75 16 -33 27 -51 23 -40 -15 48 -15 61 -1 35 23 -40 32
-74 16 -65 -8 6 -11 4 -7 -6 41 -104 61 -149 64 -146 3 2 -5 25 -16 51 -23 55
-26 83 -5 46 21 -36 18 -19 -5 36 -11 26 -19 52 -17 58 2 5 15 -20 30 -57 30
-75 31 -81 17 -72 -13 8 -13 -5 0 -25 8 -13 10 -12 10 4 0 14 3 17 11 9 15
-15 0 -63 -20 -63 -12 0 -29 31 -61 108 -24 59 -50 122 -57 141 -8 18 -16 31
-19 28 -3 -2 -16 -64 -29 -137 -14 -74 -28 -136 -31 -139 -4 -3 -4 8 0 24 5
26 58 324 73 413 3 17 9 32 12 32 4 0 40 -81 81 -181z m1215 171 l-40 -7 35
-3 c33 -2 33 -3 10 -10 -25 -8 -25 -8 5 -10 26 -1 27 -3 10 -10 -16 -7 -17 -9
-3 -9 11 -1 15 -7 11 -21 -4 -14 -14 -20 -34 -20 -41 0 -41 0 -72 -22 -60 -43
-74 -132 -29 -196 12 -16 19 -32 16 -35 -3 -3 0 -8 7 -13 8 -5 10 -3 4 6 -6
10 -4 12 11 6 10 -5 37 -10 59 -13 36 -5 40 -8 40 -34 0 -22 -5 -29 -20 -30
-17 -1 -16 -2 5 -9 25 -8 25 -8 -5 -10 l-30 -2 30 -8 c27 -7 26 -8 -15 -9 -51
-1 -133 33 -167 70 -34 37 -63 109 -63 158 0 72 20 122 71 173 51 51 89 66
159 66 l45 -1 -40 -7z m790 -9 c155 -71 187 -278 60 -389 -51 -46 -93 -60
-174 -61 l-71 0 0 234 0 235 73 0 c48 0 85 -6 112 -19z m202 -333 c-1 -68 -3
-15 -3 117 0 132 2 187 3 123 2 -64 2 -172 0 -240z m33 117 c0 -150 -4 -235
-10 -235 -6 0 -10 85 -10 235 0 150 4 235 10 235 6 0 10 -85 10 -235z m17
-117 c-1 -68 -3 -15 -3 117 0 132 2 187 3 123 2 -64 2 -172 0 -240z m20 0 c-1
-68 -3 -15 -3 117 0 132 2 187 3 123 2 -64 2 -172 0 -240z m118 342 l-90 -6
90 -4 90 -4 -90 -6 -90 -6 90 -2 c55 -2 85 -6 76 -11 -11 -7 -11 -10 0 -17 9
-6 -19 -11 -76 -15 l-90 -5 90 -4 90 -4 -90 -5 -90 -6 -3 -42 -3 -43 65 0 c84
0 87 -19 4 -22 l-63 -2 65 -5 65 -5 -65 -6 -65 -7 65 -3 65 -3 -65 -7 -65 -7
63 -1 c55 -2 62 -4 62 -22 0 -18 -7 -20 -66 -20 l-65 0 3 -32 3 -33 90 -6 90
-5 -90 -4 -90 -4 90 -6 90 -6 -90 -4 -90 -4 85 -5 c75 -5 80 -7 45 -13 -22 -4
-60 -9 -85 -10 -25 -1 -6 -5 45 -8 l90 -6 -90 -4 -90 -4 90 -6 90 -6 -97 -2
-98 -2 0 235 0 235 98 -2 97 -2 -90 -6z m343 3 c-43 -2 -113 -2 -155 0 -43 1
-8 3 77 3 85 0 120 -2 78 -3z m122 -228 c0 -150 -4 -235 -10 -235 -6 0 -10 83
-10 228 0 201 3 242 17 242 2 0 3 -106 3 -235z m17 -117 c-1 -68 -3 -15 -3
117 0 132 2 187 3 123 2 -64 2 -172 0 -240z m20 0 c-1 -68 -3 -15 -3 117 0
132 2 187 3 123 2 -64 2 -172 0 -240z m24 116 c-1 -126 -4 -230 -6 -233 -3 -2
-5 103 -5 234 0 131 3 236 6 232 3 -3 5 -108 5 -233z m114 227 l-90 -5 90 -6
90 -6 -90 -4 -90 -4 90 -6 90 -6 -87 -2 c-51 -1 -88 -6 -88 -12 0 -6 37 -11
88 -12 l87 -2 -90 -5 -90 -5 90 -6 90 -6 -87 -2 -88 -2 0 -49 0 -49 44 5 c24
3 52 0 62 -6 15 -8 6 -11 -46 -12 l-65 -2 65 -7 65 -7 -65 -3 -65 -3 65 -7 65
-7 -65 -3 -65 -3 65 -7 65 -7 -64 -1 c-76 -2 -72 -14 7 -23 l57 -6 -62 -2 -63
-1 0 -35 0 -35 88 -2 87 -2 -90 -5 -90 -5 90 -6 90 -6 -87 -2 c-81 -2 -88 -4
-88 -22 0 -18 7 -20 88 -22 l87 -2 -90 -5 -90 -5 90 -6 90 -6 -92 -2 c-83 -2
-93 0 -93 16 -2 114 -2 267 -1 350 l1 102 93 -2 92 -2 -90 -5z m364 5 c-2 -2
-26 -6 -54 -9 -32 -4 -43 -3 -30 3 19 8 93 14 84 6z m138 -153 c-2 -32 -3 -8
-3 52 0 61 1 87 3 58 2 -29 2 -78 0 -110z m-4044 140 c-13 -2 -35 -2 -50 0
-16 2 -5 4 22 4 28 0 40 -2 28 -4z m302 -215 c-19 -112 -40 -212 -46 -223 -5
-11 -8 -13 -6 -5 2 8 22 113 43 234 21 120 40 214 42 208 2 -6 -13 -102 -33
-214z m3672 -125 c-1 -65 -3 -12 -3 117 0 129 2 182 3 118 2 -65 2 -171 0
-235z m-782 328 c-71 -3 -141 -3 -155 1 -14 3 45 6 130 5 l155 -1 -130 -5z
m599 -3 c-5 -8 -2 -9 11 -4 11 4 40 9 65 11 44 5 44 5 -10 -8 -61 -14 -90 -28
-110 -51 -18 -23 -6 -20 36 9 20 14 46 25 58 24 15 -1 11 -4 -11 -10 -18 -5
-33 -12 -33 -15 0 -3 15 -3 33 1 29 6 28 5 -13 -17 -60 -31 -90 -78 -89 -137
0 -25 4 -55 9 -66 l9 -20 0 20 c1 16 5 14 21 -12 23 -38 66 -62 112 -64 25 -1
27 -3 9 -6 -36 -7 -67 4 -106 38 -19 17 -35 27 -35 22 0 -17 47 -54 87 -69 37
-14 8 -14 -32 1 -20 7 -20 6 -1 -9 13 -11 15 -16 6 -16 -7 0 -33 20 -57 45
-45 48 -59 47 -21 0 12 -15 44 -39 72 -52 45 -22 31 -28 -18 -8 -13 6 -17 5
-13 -3 4 -6 22 -14 40 -18 17 -4 27 -9 21 -11 -49 -17 -177 111 -173 174 1 12
3 10 9 -7 5 -17 7 -5 7 40 0 36 5 78 12 94 18 44 22 26 5 -23 -14 -42 -11 -99
7 -131 6 -9 7 2 4 30 l-5 45 10 -40 c6 -22 16 -44 22 -50 8 -7 9 -4 3 10 -17
45 -17 121 0 154 20 40 12 54 -9 14 -8 -15 -15 -23 -16 -17 0 5 7 19 15 30 20
26 19 39 -2 23 -10 -7 -2 4 16 24 19 20 30 37 25 37 -17 0 -62 -53 -84 -100
-15 -32 -20 -37 -15 -16 8 39 46 92 86 122 35 26 55 31 43 12z m-3801 -5 c-7
-2 -21 -2 -30 0 -10 3 -4 5 12 5 17 0 24 -2 18 -5z m367 -133 c-13 -72 -25
-128 -28 -126 -2 3 6 64 19 135 12 72 24 129 27 126 2 -2 -6 -63 -18 -135z
m3667 -72 c-1 -40 -3 -8 -3 72 0 80 2 112 3 73 2 -40 2 -106 0 -145z m40 100
c-2 -24 -4 -7 -4 37 0 44 2 63 4 43 2 -21 2 -57 0 -80z m-4151 90 c-16 -6 -24
-13 -18 -17 7 -4 3 -12 -11 -20 -20 -13 -21 -13 -8 2 19 24 -1 21 -35 -5 -20
-16 -25 -17 -15 -5 17 22 80 56 101 56 8 0 2 -5 -14 -11z m168 -12 c23 -13 49
-39 60 -58 l18 -33 -26 30 c-29 35 -35 22 -6 -15 11 -14 19 -32 19 -40 0 -8
-5 -4 -11 10 -6 16 -12 20 -15 12 -4 -10 -9 -7 -20 8 -9 12 -29 30 -47 41 -17
10 -26 19 -19 19 7 0 28 -14 48 -31 19 -17 35 -27 35 -21 0 6 -14 22 -31 36
-17 14 -26 26 -20 26 5 0 13 -4 16 -10 3 -5 11 -10 18 -10 21 0 -19 31 -59 45
-21 8 -30 14 -20 15 11 0 38 -11 60 -24z m3232 11 c4 -4 -59 -7 -139 -7 -81 0
-147 4 -147 9 0 10 276 9 286 -2z m587 6 c-7 -2 -19 -2 -25 0 -7 3 -2 5 12 5
14 0 19 -2 13 -5z m-3956 -19 c-3 -3 -12 -4 -19 -1 -8 3 -5 6 6 6 11 1 17 -2
13 -5z m97 -3 c3 -4 -6 -6 -19 -3 -14 2 -25 6 -25 8 0 8 39 4 44 -5z m3863 3
c-3 -3 -12 -4 -19 -1 -8 3 -5 6 6 6 11 1 17 -2 13 -5z m-659 -11 c-43 -2 -113
-2 -155 0 -43 1 -8 3 77 3 85 0 120 -2 78 -3z m-3607 -20 c13 -16 12 -17 -3
-4 -17 13 -22 21 -14 21 2 0 10 -8 17 -17z m295 2 c-21 -7 -52 -26 -68 -42
-24 -21 -27 -23 -17 -6 16 26 77 63 104 62 11 0 3 -6 -19 -14z m81 9 c-3 -3
-12 -4 -19 -1 -8 3 -5 6 6 6 11 1 17 -2 13 -5z m473 -102 c24 -56 40 -105 38
-108 -3 -2 -23 38 -44 90 -21 52 -40 93 -43 91 -2 -3 8 -34 24 -70 15 -36 25
-68 23 -71 -11 -11 -58 127 -52 152 4 14 8 24 9 22 2 -2 22 -49 45 -106z
m5137 63 c-8 -21 -16 -34 -20 -29 -6 10 22 78 29 71 2 -2 -2 -21 -9 -42z
m-6006 18 c13 -16 12 -17 -3 -4 -17 13 -22 21 -14 21 2 0 10 -8 17 -17z m3652
10 l-53 -4 -2 -187 -2 -187 -6 190 -6 190 -4 -190 -4 -190 -6 185 -6 185 -2
-182 c-1 -114 -6 -183 -12 -183 -6 0 -11 69 -12 183 l-2 182 -6 -185 -6 -185
-4 185 -4 185 -6 -185 -6 -185 -2 187 -2 187 -52 4 c-29 2 17 3 102 3 85 0
131 -1 103 -3z m606 3 c-2 -2 -17 -6 -34 -10 -22 -5 -26 -4 -15 4 14 9 59 15
49 6z m-4041 -45 c-12 -22 -24 -38 -26 -36 -5 4 37 75 44 75 3 0 -6 -18 -18
-39z m-257 12 c13 -16 12 -17 -3 -4 -17 13 -22 21 -14 21 2 0 10 -8 17 -17z
m209 -3 c-6 -11 -13 -20 -16 -20 -2 0 0 9 6 20 6 11 13 20 16 20 2 0 0 -9 -6
-20z m4020 17 c0 -2 -12 -14 -27 -28 l-28 -24 24 28 c23 25 31 32 31 24z
m-4002 -32 c-6 -14 -13 -23 -15 -21 -5 5 15 46 22 46 3 0 -1 -11 -7 -25z m-41
-47 c-3 -8 -6 -5 -6 6 -1 11 2 17 5 13 3 -3 4 -12 1 -19z m63 -33 c-7 -45 -7
-46 -9 -13 -1 32 8 74 14 66 1 -2 -1 -25 -5 -53z m3920 0 c-7 -45 -7 -46 -9
-13 -1 32 8 74 14 66 1 -2 -1 -25 -5 -53z m1895 28 c-3 -16 -10 -32 -15 -37
-5 -5 -4 7 2 27 13 43 23 50 13 10z m-5858 -15 c-3 -7 -5 -2 -5 12 0 14 2 19
5 13 2 -7 2 -19 0 -25z m345 -50 c-8 -29 -9 -27 -8 25 0 45 2 53 9 34 4 -14 4
-40 -1 -59z m3575 50 c-3 -7 -5 -2 -5 12 0 14 2 19 5 13 2 -7 2 -19 0 -25z
m-3900 -45 c-2 -16 -4 -5 -4 22 0 28 2 40 4 28 2 -13 2 -35 0 -50z m343 -23
l-11 -25 6 25 c2 14 6 39 6 55 l2 30 4 -30 c2 -17 -1 -42 -7 -55z m3926 55 c1
-8 -2 -15 -7 -15 -5 0 -9 10 -9 22 0 23 12 17 16 -7z m-4339 -32 c-3 -10 -5
-2 -5 17 0 19 2 27 5 18 2 -10 2 -26 0 -35z m3920 10 c-3 -10 -5 -4 -5 12 0
17 2 24 5 18 2 -7 2 -21 0 -30z m551 30 c-21 -2 -57 -2 -80 0 -24 2 -7 4 37 4
44 0 63 -2 43 -4z m-4451 -25 c-3 -8 -6 -5 -6 6 -1 11 2 17 5 13 3 -3 4 -12 1
-19z m4290 -165 c-2 -37 -3 -9 -3 62 0 72 1 102 3 68 2 -34 2 -93 0 -130z
m161 170 c-21 -2 -57 -2 -80 0 -24 2 -7 4 37 4 44 0 63 -2 43 -4z m-137 -124
c-1 -57 -4 -105 -6 -108 -3 -2 -5 47 -5 109 0 62 3 111 6 107 3 -3 5 -52 5
-108z m-4284 79 c-3 -8 -6 -5 -6 6 -1 11 2 17 5 13 3 -3 4 -12 1 -19z m5824
-45 c-8 -15 -9 -12 -6 12 7 57 8 60 12 33 2 -15 0 -35 -6 -45z m-5844 35 c-3
-8 -6 -5 -6 6 -1 11 2 17 5 13 3 -3 4 -12 1 -19z m92 -62 c-9 -8 -10 -8 -5 1
4 7 0 23 -8 35 -9 12 -16 27 -16 33 0 5 9 -5 21 -24 16 -26 18 -36 8 -45z
m-55 38 c3 -8 2 -12 -4 -9 -6 3 -10 10 -10 16 0 14 7 11 14 -7z m328 2 c17 11
-8 -29 -34 -52 -30 -28 -62 -44 -85 -44 -10 1 -1 7 20 15 40 14 87 51 87 68 0
5 -16 -5 -35 -22 -20 -17 -41 -31 -48 -31 -7 0 2 9 20 20 18 11 38 29 45 40 7
11 14 16 16 10 2 -6 8 -7 14 -4z m4081 7 c-24 -2 -62 -2 -85 0 -24 2 -5 4 42
4 47 0 66 -2 43 -4z m-3894 -87 c-6 -42 -14 -75 -16 -72 -3 2 1 39 8 80 6 42
14 75 16 72 3 -2 -1 -39 -8 -80z m178 62 c-3 -8 -6 -5 -6 6 -1 11 2 17 5 13 3
-3 4 -12 1 -19z m3500 -100 c-2 -24 -4 -5 -4 42 0 47 2 66 4 43 2 -24 2 -62 0
-85z m-4233 96 c3 -8 2 -12 -4 -9 -6 3 -10 10 -10 16 0 14 7 11 14 -7z m576
-64 c-7 -39 -14 -69 -16 -67 -3 2 1 36 7 76 7 39 14 69 17 67 2 -3 -1 -37 -8
-76z m-783 35 c-15 -14 -33 -25 -39 -25 -6 0 4 11 23 24 44 32 51 32 16 1z
m279 3 c-1 -13 3 -29 8 -37 9 -12 7 -12 -11 -3 -27 15 -41 34 -17 25 13 -5 16
-3 11 9 -3 9 -3 19 0 22 10 9 10 8 9 -16z m764 -53 c-12 -31 -25 -53 -28 -51
-2 3 6 30 18 61 12 31 25 53 28 51 2 -3 -6 -30 -18 -61z m4962 -72 c-36 -105
-41 -115 -50 -93 -7 18 -6 29 2 40 7 8 20 41 30 73 10 33 21 55 27 51 6 -3 10
2 8 12 -3 23 13 63 18 47 2 -6 -14 -65 -35 -130z m-5587 106 l50 -6 -46 -2
c-28 0 -52 5 -65 15 -10 8 -12 12 -4 7 8 -4 38 -10 65 -14z m-170 -19 c10 -11
16 -20 13 -20 -3 0 -13 9 -23 20 -10 11 -16 20 -13 20 3 0 13 -9 23 -20z m66
3 c13 -16 12 -17 -3 -4 -10 7 -18 15 -18 17 0 8 8 3 21 -13z m98 -9 c10 -9
-45 -3 -59 6 -11 7 -5 8 20 4 19 -4 37 -8 39 -10z m-33 -22 c-10 -2 -22 0 -28
6 -6 6 0 7 19 4 21 -5 23 -7 9 -10z m119 9 c-12 -10 -65 -24 -65 -16 0 2 15 9
33 14 43 12 42 12 32 2z m3493 2 c-16 -2 -40 -2 -55 0 -16 2 -3 4 27 4 30 0
43 -2 28 -4z m309 1 c-3 -3 -12 -4 -19 -1 -8 3 -5 6 6 6 11 1 17 -2 13 -5z
m-4006 -21 c13 -16 12 -17 -3 -4 -10 7 -18 15 -18 17 0 8 8 3 21 -13z m4056
11 c-3 -3 -12 -4 -19 -1 -8 3 -5 6 6 6 11 1 17 -2 13 -5z m-4 -21 c-7 -2 -21
-2 -30 0 -10 3 -4 5 12 5 17 0 24 -2 18 -5z m0 -20 c-7 -2 -21 -2 -30 0 -10 3
-4 5 12 5 17 0 24 -2 18 -5z m1617 -156 c0 -4 -5 -5 -12 -1 -8 5 -9 2 -5 -9 3
-10 2 -17 -3 -17 -5 0 -7 -7 -4 -15 4 -8 1 -15 -6 -15 -7 0 -10 -7 -6 -15 3
-8 2 -15 -3 -15 -5 0 -12 -16 -15 -35 -4 -19 -12 -37 -18 -41 -7 -4 -8 -3 -4
4 4 6 2 20 -4 31 -11 22 6 75 21 65 5 -3 6 2 3 10 -3 9 -1 16 6 16 6 0 9 4 6
9 -3 4 0 22 7 40 11 29 13 30 24 14 7 -9 13 -21 13 -26z m-2640 -133 c0 -9
-12 -14 -34 -14 -40 0 -55 -16 -47 -50 6 -20 14 -26 45 -28 47 -4 43 -26 -6
-30 -82 -7 -107 110 -29 136 33 11 71 3 71 -14z m-2756 -8 c15 -13 26 -32 26
-44 0 -19 -39 -77 -40 -58 0 5 -7 3 -15 -4 -11 -9 -18 -10 -28 -1 -8 6 -18 7
-22 3 -5 -4 -5 -1 -1 6 4 7 1 12 -8 12 -9 0 -16 5 -16 10 0 6 13 4 31 -5 27
-14 33 -15 53 -2 48 32 5 110 -44 79 -12 -7 -21 -8 -25 -2 -3 5 9 14 27 19 18
5 34 10 35 10 1 1 13 -10 27 -23z m110 -21 l24 -38 23 41 c14 24 31 42 42 42
15 0 17 -10 17 -70 0 -56 -3 -70 -15 -70 -11 0 -15 12 -15 43 l-1 42 -18 -22
c-11 -13 -26 -23 -35 -23 -8 0 -21 10 -28 23 -12 21 -13 21 -18 -16 -8 -62
-25 -47 -28 25 -2 56 0 66 13 64 9 -1 26 -20 39 -41z m256 25 c27 -27 25 -66
-6 -97 -20 -20 -31 -24 -57 -19 -18 3 -38 14 -44 23 -18 24 -16 73 5 94 24 24
77 24 102 -1z m150 5 c0 -8 -9 -15 -20 -15 -18 0 -20 -7 -20 -55 0 -42 -3 -55
-15 -55 -12 0 -15 13 -15 55 0 48 -2 55 -20 55 -11 0 -20 7 -20 15 0 12 13 15
55 15 42 0 55 -3 55 -15z m60 -55 c0 -56 -3 -70 -15 -70 -12 0 -15 14 -15 70
0 56 3 70 15 70 12 0 15 -14 15 -70z m140 56 c0 -10 -13 -16 -37 -18 -36 -3
-38 -5 -38 -38 0 -34 1 -35 38 -35 29 0 37 -4 37 -17 0 -25 -60 -24 -91 0 -28
23 -30 73 -4 102 22 24 95 29 95 6z m131 -53 c23 -58 24 -69 11 -72 -8 -1 -19
4 -24 13 -5 9 -20 16 -33 16 -13 0 -28 -7 -33 -16 -5 -9 -16 -14 -24 -13 -13
3 -11 15 11 71 36 93 57 93 92 1z m199 52 c0 -10 -11 -15 -35 -15 -19 0 -35
-4 -35 -8 0 -4 16 -14 35 -21 37 -13 47 -45 23 -69 -18 -18 -98 -16 -98 3 0
11 11 15 40 15 49 0 52 15 5 30 -37 12 -54 43 -35 65 17 21 100 20 100 0z
m136 7 c15 -10 34 -47 34 -67 0 -27 -46 -65 -79 -65 -58 0 -92 79 -51 120 20
20 74 27 96 12z m164 -7 c0 -10 -11 -15 -35 -15 -19 0 -35 -4 -35 -10 0 -5 11
-10 25 -10 18 0 25 -5 25 -20 0 -17 -5 -19 -25 -14 -23 6 -25 3 -25 -25 0 -24
-4 -31 -20 -31 -18 0 -20 7 -20 70 l0 70 55 0 c42 0 55 -3 55 -15z m130 0 c0
-8 -9 -15 -20 -15 -18 0 -20 -7 -20 -55 0 -48 -2 -55 -20 -55 -18 0 -20 7 -20
55 0 48 -2 55 -20 55 -11 0 -20 7 -20 15 0 12 13 15 60 15 47 0 60 -3 60 -15z
m55 -32 l8 -48 10 38 c8 32 13 37 37 37 24 0 29 -5 36 -37 l7 -38 10 48 c7 36
14 47 28 47 10 0 17 -6 14 -12 -2 -7 -9 -39 -15 -71 -11 -54 -13 -58 -38 -55
-20 2 -28 11 -35 38 l-10 35 -10 -37 c-8 -33 -13 -38 -37 -38 -25 0 -28 4 -35
48 -3 26 -9 57 -12 70 -4 17 -1 22 15 22 16 0 21 -9 27 -47z m273 -5 c11 -29
23 -61 27 -70 5 -14 2 -18 -13 -18 -11 0 -22 7 -26 15 -7 20 -53 19 -64 -1 -5
-9 -16 -14 -24 -13 -13 3 -12 14 11 72 21 53 30 67 47 67 16 0 26 -12 42 -52z
m160 19 c2 -16 -2 -35 -9 -43 -9 -11 -8 -18 5 -32 21 -24 20 -32 -4 -32 -11 0
-27 11 -36 25 -9 14 -20 25 -25 25 -5 0 -9 -11 -9 -25 0 -16 -6 -25 -15 -25
-12 0 -15 15 -15 71 l0 70 53 -3 c49 -3 52 -5 55 -31z m142 18 c0 -10 -11 -15
-35 -15 -41 0 -47 -17 -7 -22 16 -2 27 -9 27 -18 0 -10 -9 -14 -27 -13 -19 1
-28 -3 -28 -13 0 -9 11 -14 35 -14 24 0 35 -5 35 -15 0 -12 -13 -15 -55 -15
l-55 0 0 70 0 70 55 0 c42 0 55 -3 55 -15z m180 0 c0 -9 -9 -15 -24 -15 -32 0
-39 -12 -22 -35 13 -18 15 -18 30 -2 24 23 29 21 24 -8 -3 -14 -1 -25 3 -25 5
0 9 -8 9 -17 0 -15 -10 -18 -52 -20 -28 -1 -58 3 -65 9 -15 12 -18 58 -3 58 6
0 10 10 10 23 0 32 18 47 57 47 23 0 33 -5 33 -15z m210 0 c0 -9 -10 -15 -26
-15 -25 0 -26 -2 -22 -55 3 -47 0 -55 -14 -55 -15 0 -18 9 -18 55 0 48 -2 55
-20 55 -11 0 -20 7 -20 15 0 12 13 15 60 15 47 0 60 -3 60 -15z m120 0 c0 -10
-11 -15 -35 -15 -19 0 -35 -4 -35 -10 0 -5 14 -10 30 -10 38 0 41 -27 3 -32
-42 -5 -41 -28 1 -28 25 0 36 -4 36 -15 0 -11 -12 -15 -50 -15 l-50 0 0 70 0
70 50 0 c38 0 50 -4 50 -15z m220 -20 c12 -19 25 -35 29 -35 4 0 5 16 3 35 -4
30 -1 35 17 35 21 0 22 -4 19 -67 -4 -85 -24 -96 -60 -34 -13 23 -26 41 -30
41 -5 0 -8 -18 -8 -40 0 -29 -4 -40 -15 -40 -12 0 -15 14 -15 70 0 62 2 70 19
70 11 0 28 -15 41 -35z m206 27 c38 -25 39 -91 1 -117 -32 -22 -65 -18 -93 11
-28 27 -27 63 3 97 16 17 69 23 89 9z m87 -50 l-2 -52 40 0 c29 0 39 -4 39
-16 0 -12 -10 -14 -52 -12 l-53 3 -3 68 c-2 61 -1 68 15 65 15 -3 18 -13 16
-56z m192 52 c8 -4 22 -19 30 -34 12 -23 12 -31 -1 -56 -25 -48 -65 -58 -102
-26 -64 53 -6 146 73 116z m185 -9 c0 -10 -10 -14 -36 -13 -40 1 -56 -14 -52
-52 3 -20 9 -26 36 -28 24 -2 32 1 32 12 0 9 -7 16 -15 16 -8 0 -15 5 -15 10
0 6 13 10 30 10 27 0 29 -3 28 -35 -1 -31 -5 -35 -34 -41 -40 -7 -94 26 -94
57 0 23 18 61 34 71 21 14 86 9 86 -7z m60 -49 c0 -36 -4 -68 -10 -71 -6 -4
-10 20 -10 64 0 41 4 71 10 71 6 0 10 -28 10 -64z m83 21 c3 -8 -1 -14 -8 -14
-7 0 -11 6 -8 14 3 7 6 13 8 13 2 0 5 -6 8 -13z m-3746 -22 c-15 -16 -19 -13
-11 9 3 9 10 13 15 10 5 -3 3 -11 -4 -19z m3786 -26 c-8 -8 -13 -7 -18 2 -5 8
-4 10 3 5 7 -4 12 -2 12 5 0 7 3 9 7 6 4 -4 2 -12 -4 -18z m-56 -15 c-3 -3
-12 -4 -19 -1 -8 3 -5 6 6 6 11 1 17 -2 13 -5z m-3810 -10 c-3 -3 -12 -4 -19
-1 -8 3 -5 6 6 6 11 1 17 -2 13 -5z m3803 -10 c0 -8 -19 -13 -24 -6 -3 5 1 9
9 9 8 0 15 -2 15 -3z m-5203 -307 c30 -59 147 -231 242 -357 282 -372 660
-721 1035 -955 77 -48 108 -76 39 -34 -461 274 -923 715 -1206 1152 -121 186
-154 243 -139 233 7 -4 20 -22 29 -39z m5722 -673 c-32 -34 -149 -128 -149
-120 0 5 172 156 178 156 3 0 -10 -16 -29 -36z m-1114 -693 c-6 -5 -21 -11
-35 -15 -21 -5 -20 -3 5 9 35 17 42 18 30 6z m-2905 -47 c0 -2 -13 2 -30 11
-16 9 -30 18 -30 21 0 2 14 -2 30 -11 17 -9 30 -18 30 -21z m-250 -10 c0 -2
-9 0 -20 6 -11 6 -20 13 -20 16 0 2 9 0 20 -6 11 -6 20 -13 20 -16z m285 -4
c3 -6 -1 -7 -9 -4 -18 7 -21 14 -7 14 6 0 13 -4 16 -10z m125 -55 c14 -8 21
-14 15 -14 -5 0 -21 6 -35 14 -14 8 -20 14 -15 14 6 0 21 -6 35 -14z m2850
-59 c0 -2 -7 -7 -16 -10 -8 -3 -12 -2 -9 4 6 10 25 14 25 6z m-1312 -63 c-21
-2 -55 -2 -75 0 -21 2 -4 4 37 4 41 0 58 -2 38 -4z m-1453 -51 c106 -42 265
-96 405 -136 47 -14 79 -25 72 -25 -23 -1 -202 47 -292 78 -93 32 -300 117
-309 128 -7 7 -4 6 124 -45z m1922 -148 c-3 -3 -12 -4 -19 -1 -8 3 -5 6 6 6
11 1 17 -2 13 -5z m-74 -11 c-7 -2 -21 -2 -30 0 -10 3 -4 5 12 5 17 0 24 -2
18 -5z m-1326 -9 c-3 -3 -12 -4 -19 -1 -8 3 -5 6 6 6 11 1 17 -2 13 -5z m1241
-1 c-10 -2 -26 -2 -35 0 -10 3 -2 5 17 5 19 0 27 -2 18 -5z m-95 -10 c-18 -2
-48 -2 -65 0 -18 2 -4 4 32 4 36 0 50 -2 33 -4z m-180 -10 c-40 -2 -106 -2
-145 0 -40 1 -8 3 72 3 80 0 112 -2 73 -3z m-670 -20 c-7 -2 -21 -2 -30 0 -10
3 -4 5 12 5 17 0 24 -2 18 -5z m85 -10 c-10 -2 -26 -2 -35 0 -10 3 -2 5 17 5
19 0 27 -2 18 -5z m100 -10 c-16 -2 -40 -2 -55 0 -16 2 -3 4 27 4 30 0 43 -2
28 -4z"/>
<path d="M7628 9173 c7 -3 16 -2 19 1 4 3 -2 6 -13 5 -11 0 -14 -3 -6 -6z"/>
<path d="M7695 9163 c11 -2 77 -15 147 -28 326 -63 607 -157 913 -304 365
-177 704 -414 988 -690 151 -147 196 -175 65 -39 -309 318 -722 599 -1170 796
-197 87 -279 118 -426 162 -138 41 -464 111 -511 109 -20 -1 -21 -2 -6 -6z"/>
<path d="M3976 7443 c-6 -14 -5 -15 5 -6 7 7 10 15 7 18 -3 3 -9 -2 -12 -12z"/>
<path d="M3746 7077 c3 -10 9 -15 12 -12 3 3 0 11 -7 18 -10 9 -11 8 -5 -6z"/>
<path d="M3736 7041 c-4 -7 -5 -15 -2 -18 9 -9 19 4 14 18 -4 11 -6 11 -12 0z"/>
<path d="M3766 7017 c3 -10 9 -15 12 -12 3 3 0 11 -7 18 -10 9 -11 8 -5 -6z"/>
<path d="M3710 6999 c0 -5 5 -7 10 -4 6 3 10 8 10 11 0 2 -4 4 -10 4 -5 0 -10
-5 -10 -11z"/>
<path d="M3736 6982 c-2 -4 -1 -14 5 -22 7 -12 9 -10 9 8 0 23 -5 28 -14 14z"/>
<path d="M3701 6973 c0 -4 4 -17 9 -28 8 -19 9 -19 9 2 1 12 -3 25 -9 28 -5 3
-10 3 -9 -2z"/>
<path d="M3722 6895 c0 -16 2 -22 5 -12 2 9 2 23 0 30 -3 6 -5 -1 -5 -18z"/>
<path d="M10761 6854 c0 -11 3 -14 6 -6 3 7 2 16 -1 19 -3 4 -6 -2 -5 -13z"/>
<path d="M3706 6844 c-4 -9 -4 -19 -1 -22 2 -3 7 3 11 12 4 9 4 19 1 22 -2 3
-7 -3 -11 -12z"/>
<path d="M10861 6514 c0 -11 3 -14 6 -6 3 7 2 16 -1 19 -3 4 -6 -2 -5 -13z"/>
<path d="M10901 6490 c0 -8 4 -22 9 -30 12 -18 12 -2 0 25 -6 13 -9 15 -9 5z"/>
<path d="M10931 6344 c0 -11 3 -14 6 -6 3 7 2 16 -1 19 -3 4 -6 -2 -5 -13z"/>
<path d="M10927 6273 c-2 -21 -1 -44 3 -51 4 -8 8 9 9 37 2 60 -5 67 -12 14z"/>
<path d="M10966 6150 c7 -47 23 -90 24 -60 0 8 -7 35 -15 60 l-15 45 6 -45z"/>
<path d="M10968 6033 c5 -21 7 -23 10 -9 2 10 0 22 -6 28 -6 6 -7 0 -4 -19z"/>
<path d="M10911 6004 c0 -11 3 -14 6 -6 3 7 2 16 -1 19 -3 4 -6 -2 -5 -13z"/>
<path d="M10993 5890 c-1 -54 1 -60 9 -37 6 17 6 41 1 65 -9 34 -9 32 -10 -28z"/>
<path d="M10891 5494 c0 -11 3 -14 6 -6 3 7 2 16 -1 19 -3 4 -6 -2 -5 -13z"/>
<path d="M10913 5430 c0 -47 2 -66 4 -42 2 23 2 61 0 85 -2 23 -4 4 -4 -43z"/>
<path d="M10781 5174 c0 -11 3 -14 6 -6 3 7 2 16 -1 19 -3 4 -6 -2 -5 -13z"/>
<path d="M10902 5170 c0 -14 2 -19 5 -12 2 6 2 18 0 25 -3 6 -5 1 -5 -13z"/>
<path d="M10881 5124 c0 -11 3 -14 6 -6 3 7 2 16 -1 19 -3 4 -6 -2 -5 -13z"/>
<path d="M10882 5050 c0 -14 2 -19 5 -12 2 6 2 18 0 25 -3 6 -5 1 -5 -13z"/>
<path d="M10771 5044 c0 -11 3 -14 6 -6 3 7 2 16 -1 19 -3 4 -6 -2 -5 -13z"/>
<path d="M10890 4974 c0 -10 5 -26 10 -34 8 -11 9 -7 4 15 -8 37 -14 45 -14
19z"/>
<path d="M10822 4605 c0 -16 2 -22 5 -12 2 9 2 23 0 30 -3 6 -5 -1 -5 -18z"/>
<path d="M10841 4564 c0 -11 3 -14 6 -6 3 7 2 16 -1 19 -3 4 -6 -2 -5 -13z"/>
<path d="M10816 4494 c-4 -9 -4 -19 -1 -22 3 -3 5 1 6 9 0 8 4 6 9 -6 8 -18 9
-17 9 8 1 30 -13 36 -23 11z"/>
<path d="M10681 4004 c0 -11 3 -14 6 -6 3 7 2 16 -1 19 -3 4 -6 -2 -5 -13z"/>
<path d="M6791 6832 c-1 -29 23 -25 26 4 3 18 2 18 -6 -1 l-8 -20 -5 20 c-5
18 -6 17 -7 -3z"/>
<path d="M7060 6751 c-82 -12 -170 -32 -170 -38 0 -3 13 -29 30 -58 32 -56
166 -191 243 -243 l47 -33 28 20 c83 60 162 183 162 254 0 29 -32 60 -84 81
-46 19 -179 28 -256 17z"/>
<path d="M7547 6652 c-49 -75 -89 -208 -103 -344 l-7 -67 86 -26 c80 -25 92
-26 162 -17 107 14 119 27 112 117 -7 99 -55 186 -185 333 l-39 43 -26 -39z"/>
<path d="M6744 6531 c-70 -43 -145 -161 -198 -316 l-24 -70 65 -3 c40 -2 93 4
141 16 83 21 239 79 246 91 8 13 -23 142 -45 188 -12 24 -36 59 -54 78 -38 41
-82 46 -131 16z"/>
<path d="M6337 6303 c3 -7 6 -13 8 -13 2 0 5 6 8 13 3 8 -1 14 -8 14 -7 0 -11
-6 -8 -14z"/>
<path d="M7296 6258 c-11 -43 -7 -68 12 -68 14 0 15 2 2 10 -13 9 -13 11 0 20
10 7 11 10 2 10 -8 0 -10 8 -6 25 3 14 4 25 1 25 -2 0 -7 -10 -11 -22z"/>
<path d="M7159 6185 c-38 -25 -54 -50 -42 -67 3 -6 2 -9 -3 -6 -5 3 -16 -1
-24 -10 -13 -14 -12 -15 4 -9 13 5 17 3 13 -7 -4 -9 13 -23 48 -42 l54 -28 36
20 c20 10 46 32 58 48 11 16 16 27 10 23 -7 -4 -12 5 -15 23 -3 21 0 30 9 30
8 0 12 4 8 10 -3 5 -12 7 -19 4 -8 -3 -32 4 -55 15 -22 12 -42 21 -43 20 -2 0
-19 -11 -39 -24z"/>
<path d="M7311 6134 c0 -11 3 -14 6 -6 3 7 2 16 -1 19 -3 4 -6 -2 -5 -13z"/>
<path d="M6355 6130 c3 -5 8 -10 11 -10 2 0 4 5 4 10 0 6 -5 10 -11 10 -5 0
-7 -4 -4 -10z"/>
<path d="M7703 6074 c-35 -7 -107 -30 -160 -51 -113 -44 -114 -46 -88 -152 21
-84 86 -181 130 -193 64 -17 156 60 222 187 27 53 66 152 77 198 l6 27 -62 -1
c-35 -1 -91 -7 -125 -15z"/>
<path d="M8064 6066 c-3 -8 -4 -21 -1 -28 3 -7 6 -2 6 12 1 20 3 22 11 10 6
-9 10 -10 10 -3 0 19 -20 26 -26 9z"/>
<path d="M6725 6030 c-77 -11 -92 -18 -105 -50 -35 -85 29 -226 184 -405 40
-46 42 -45 84 40 46 90 101 334 83 364 -7 11 -114 47 -161 54 -19 2 -58 1 -85
-3z"/>
<path d="M8065 5989 c-4 -6 -5 -12 -2 -15 2 -3 7 2 10 11 7 17 1 20 -8 4z"/>
<path d="M8055 5925 c0 -13 3 -21 8 -18 4 2 7 10 7 18 0 8 -3 16 -7 18 -5 3
-8 -5 -8 -18z"/>
<path d="M7154 5807 c-70 -60 -81 -74 -115 -147 -27 -58 -29 -69 -20 -101 9
-31 20 -40 64 -60 45 -21 67 -24 167 -24 108 0 230 16 260 35 34 21 -129 213
-262 307 l-46 33 -48 -43z"/>
<path d="M6946 5713 c-6 -14 -5 -15 5 -6 7 7 10 15 7 18 -3 3 -9 -2 -12 -12z"/>
<path d="M6935 5681 c3 -5 1 -13 -5 -16 -6 -4 -10 -25 -9 -48 2 -61 10 -88 22
-80 6 4 8 0 5 -9 -4 -8 0 -15 8 -15 7 0 16 7 18 14 3 8 1 11 -4 8 -6 -3 -10 1
-10 9 0 8 5 18 10 21 6 3 10 16 9 28 0 16 -2 18 -7 7 -4 -8 -13 -16 -20 -18
-9 -2 -11 2 -5 10 14 22 10 98 -5 98 -7 0 -11 -4 -7 -9z m2 -73 c-3 -8 -6 -5
-6 6 -1 11 2 17 5 13 3 -3 4 -12 1 -19z"/>
<path d="M7596 5413 c7 -37 14 -42 14 -10 0 14 -4 28 -9 32 -6 3 -8 -6 -5 -22z"/>
<path d="M10931 4434 c0 -11 3 -14 6 -6 3 7 2 16 -1 19 -3 4 -6 -2 -5 -13z"/>
<path d="M10917 4395 c-4 -8 -2 -17 3 -20 6 -4 10 3 10 14 0 25 -6 27 -13 6z"/>
<path d="M10902 4270 c0 -14 2 -19 5 -12 2 6 2 18 0 25 -3 6 -5 1 -5 -13z"/>
<path d="M10876 4195 c-9 -26 -7 -32 5 -12 6 10 9 21 6 23 -2 3 -7 -2 -11 -11z"/>
<path d="M10850 4120 c0 -5 5 -10 10 -10 6 0 10 5 10 10 0 6 -4 10 -10 10 -5
0 -10 -4 -10 -10z"/>
<path d="M10821 4030 c0 -8 4 -22 9 -30 12 -18 12 -2 0 25 -6 13 -9 15 -9 5z"/>
<path d="M10617 3427 c-3 -8 1 -14 8 -14 7 0 11 6 8 14 -3 7 -6 13 -8 13 -2 0
-5 -6 -8 -13z"/>
<path d="M7343 4453 c15 -2 37 -2 50 0 12 2 0 4 -28 4 -27 0 -38 -2 -22 -4z"/>
<path d="M7348 4433 c12 -2 30 -2 40 0 9 3 -1 5 -23 4 -22 0 -30 -2 -17 -4z"/>
<path d="M7460 4436 c0 -3 9 -10 20 -16 11 -6 20 -8 20 -6 0 3 -9 10 -20 16
-11 6 -20 8 -20 6z"/>
<path d="M7418 4423 c7 -3 16 -2 19 1 4 3 -2 6 -13 5 -11 0 -14 -3 -6 -6z"/>
<path d="M7194 4388 l-19 -23 23 19 c12 11 22 21 22 23 0 8 -8 2 -26 -19z"/>
<path d="M7290 4400 c-8 -5 -10 -10 -5 -10 6 0 17 5 25 10 8 5 11 10 5 10 -5
0 -17 -5 -25 -10z"/>
<path d="M7408 4403 c7 -3 16 -2 19 1 4 3 -2 6 -13 5 -11 0 -14 -3 -6 -6z"/>
<path d="M7482 4394 c10 -10 20 -16 22 -13 3 3 -5 11 -17 18 -21 13 -21 12 -5
-5z"/>
<path d="M7209 4373 c-13 -16 -12 -17 4 -4 16 13 21 21 13 21 -2 0 -10 -8 -17
-17z"/>
<path d="M7398 4383 c7 -3 16 -2 19 1 4 3 -2 6 -13 5 -11 0 -14 -3 -6 -6z"/>
<path d="M7491 4355 c15 -16 31 -39 37 -50 6 -11 12 -14 12 -7 0 7 -17 30 -37
50 -21 21 -26 24 -12 7z"/>
<path d="M7298 4373 c8 -3 -4 -19 -29 -42 -38 -33 -42 -42 -46 -91 -4 -46 -1
-61 19 -90 46 -68 136 -90 199 -47 47 31 71 81 66 136 -9 81 -63 126 -162 133
-33 3 -54 3 -47 1z"/>
<path d="M7476 4340 c12 -14 26 -34 32 -45 6 -11 12 -14 12 -7 0 7 -15 27 -32
45 -18 18 -23 21 -12 7z"/>
<path d="M7566 4327 c3 -10 9 -15 12 -12 3 3 0 11 -7 18 -10 9 -11 8 -5 -6z"/>
<path d="M7546 4317 c3 -10 9 -15 12 -12 3 3 0 11 -7 18 -10 9 -11 8 -5 -6z"/>
<path d="M7132 4255 c0 -16 2 -22 5 -12 2 9 2 23 0 30 -3 6 -5 -1 -5 -18z"/>
<path d="M7541 4264 c0 -11 3 -14 6 -6 3 7 2 16 -1 19 -3 4 -6 -2 -5 -13z"/>
<path d="M7153 4225 c0 -27 2 -38 4 -22 2 15 2 37 0 50 -2 12 -4 0 -4 -28z"/>
<path d="M7523 4225 c0 -27 2 -38 4 -22 2 15 2 37 0 50 -2 12 -4 0 -4 -28z"/>
<path d="M7172 4230 c0 -14 2 -19 5 -12 2 6 2 18 0 25 -3 6 -5 1 -5 -13z"/>
<path d="M7592 4225 c0 -16 2 -22 5 -12 2 9 2 23 0 30 -3 6 -5 -1 -5 -18z"/>
<path d="M7132 4195 c0 -16 2 -22 5 -12 2 9 2 23 0 30 -3 6 -5 -1 -5 -18z"/>
<path d="M7541 4184 c0 -11 3 -14 6 -6 3 7 2 16 -1 19 -3 4 -6 -2 -5 -13z"/>
<path d="M7561 4174 c0 -11 3 -14 6 -6 3 7 2 16 -1 19 -3 4 -6 -2 -5 -13z"/>
<path d="M7581 4164 c0 -11 3 -14 6 -6 3 7 2 16 -1 19 -3 4 -6 -2 -5 -13z"/>
<path d="M7506 4153 c-6 -14 -5 -15 5 -6 7 7 10 15 7 18 -3 3 -9 -2 -12 -12z"/>
<path d="M7526 4143 c-6 -14 -5 -15 5 -6 7 7 10 15 7 18 -3 3 -9 -2 -12 -12z"/>
<path d="M7566 4123 c-6 -14 -5 -15 5 -6 7 7 10 15 7 18 -3 3 -9 -2 -12 -12z"/>
<path d="M7160 4110 c6 -11 13 -20 16 -20 2 0 0 9 -6 20 -6 11 -13 20 -16 20
-2 0 0 -9 6 -20z"/>
<path d="M7474 4108 l-19 -23 23 19 c12 11 22 21 22 23 0 8 -8 2 -26 -19z"/>
<path d="M7489 4093 l-24 -28 28 24 c25 23 32 31 24 31 -2 0 -14 -12 -28 -27z"/>
<path d="M7504 4078 l-29 -33 33 29 c17 17 32 31 32 33 0 8 -8 1 -36 -29z"/>
<path d="M7539 4083 c-8 -9 -32 -29 -53 -45 -21 -15 -34 -28 -27 -28 12 0 111
89 100 90 -4 0 -13 -8 -20 -17z"/>
<path d="M7430 4080 c-9 -6 -10 -10 -3 -10 6 0 15 5 18 10 8 12 4 12 -15 0z"/>
<path d="M7250 4076 c0 -3 9 -10 20 -16 11 -6 20 -8 20 -6 0 3 -9 10 -20 16
-11 6 -20 8 -20 6z"/>
<path d="M7328 4063 c7 -3 16 -2 19 1 4 3 -2 6 -13 5 -11 0 -14 -3 -6 -6z"/>
<path d="M7378 4063 c6 -2 18 -2 25 0 6 3 1 5 -13 5 -14 0 -19 -2 -12 -5z"/>
<path d="M7415 4050 c-16 -7 -17 -9 -3 -9 9 -1 20 4 23 9 7 11 7 11 -20 0z"/>
<path d="M7221 4036 c2 -2 15 -9 29 -15 24 -11 24 -11 6 3 -16 13 -49 24 -35
12z"/>
<path d="M7425 4030 c-16 -7 -17 -9 -3 -9 9 -1 20 4 23 9 7 11 7 11 -20 0z"/>
<path d="M7353 4013 c9 -2 25 -2 35 0 9 3 1 5 -18 5 -19 0 -27 -2 -17 -5z"/>
<path d="M7338 3993 c12 -2 32 -2 45 0 12 2 2 4 -23 4 -25 0 -35 -2 -22 -4z"/>
<path d="M5517 4258 c7 -83 -12 -139 -64 -192 -20 -20 -32 -36 -26 -36 16 0
73 69 89 106 15 36 18 137 4 169 -5 12 -6 -6 -3 -47z"/>
<path d="M6455 4450 c-12 -4 7 -6 45 -3 36 3 67 7 69 9 9 8 -95 2 -114 -6z"/>
<path d="M6369 4403 c-37 -34 -70 -81 -69 -100 1 -4 8 6 17 22 21 40 52 74 88
96 17 11 24 19 18 19 -7 0 -31 -17 -54 -37z"/>
<path d="M6460 4430 c-10 -6 3 -7 40 -3 30 3 57 7 59 9 10 9 -85 3 -99 -6z"/>
<path d="M6634 4421 c4 -6 2 -11 -4 -11 -6 0 5 -13 23 -30 19 -16 40 -44 47
-60 7 -17 15 -29 17 -26 8 7 -18 49 -50 84 -17 17 -26 32 -20 32 15 0 70 -63
78 -90 4 -12 9 -19 12 -17 7 8 -16 48 -46 80 -28 31 -69 58 -57 38z"/>
<path d="M6508 4413 c6 -2 18 -2 25 0 6 3 1 5 -13 5 -14 0 -19 -2 -12 -5z"/>
<path d="M6373 4378 c-30 -33 -53 -69 -53 -85 1 -4 7 3 15 17 8 14 14 19 15
11 0 -8 15 2 33 23 17 20 50 44 72 52 22 8 29 13 15 11 -14 -3 -34 -8 -44 -12
-14 -6 -17 -5 -12 3 15 24 -11 11 -41 -20z m12 -18 c-16 -16 -31 -28 -33 -25
-7 7 39 55 52 55 5 0 -3 -13 -19 -30z"/>
<path d="M6478 4383 c7 -3 16 -2 19 1 4 3 -2 6 -13 5 -11 0 -14 -3 -6 -6z"/>
<path d="M6548 4383 c7 -3 16 -2 19 1 4 3 -2 6 -13 5 -11 0 -14 -3 -6 -6z"/>
<path d="M6634 4369 c14 -11 26 -25 26 -31 0 -6 -6 -5 -15 2 -11 9 -8 -2 7
-32 13 -24 24 -41 26 -37 2 4 -2 18 -8 29 -6 12 -9 24 -7 27 3 3 12 -8 21 -24
17 -32 22 -23 5 10 -15 29 -60 77 -72 77 -5 0 2 -9 17 -21z"/>
<path d="M6412 4353 c-24 -24 -24 -25 -2 -8 42 33 44 35 37 35 -4 0 -19 -12
-35 -27z"/>
<path d="M6443 4351 c-69 -43 -89 -119 -51 -191 88 -165 331 -47 260 126 -30
72 -142 107 -209 65z"/>
<path d="M6291 4274 c0 -11 3 -14 6 -6 3 7 2 16 -1 19 -3 4 -6 -2 -5 -13z"/>
<path d="M6356 4275 c-3 -9 -5 -33 -5 -53 2 -33 2 -32 9 13 8 53 6 66 -4 40z"/>
<path d="M6742 4265 c0 -16 2 -22 5 -12 2 9 2 23 0 30 -3 6 -5 -1 -5 -18z"/>
<path d="M6312 4260 c0 -14 2 -19 5 -12 2 6 2 18 0 25 -3 6 -5 1 -5 -13z"/>
<path d="M6722 4232 c-2 -59 -22 -114 -55 -152 l-22 -25 28 24 c15 14 27 20
27 13 0 -6 -17 -25 -37 -42 -21 -18 -29 -28 -18 -22 21 10 56 46 70 71 5 9 4
12 -3 7 -15 -9 -15 -6 3 39 10 22 15 57 12 88 l-3 52 -2 -53z"/>
<path d="M6333 4225 c0 -27 2 -38 4 -22 2 15 2 37 0 50 -2 12 -4 0 -4 -28z"/>
<path d="M6701 4227 c0 -21 -8 -54 -16 -75 -13 -32 -13 -35 0 -18 18 23 28 74
22 107 -3 16 -5 12 -6 -14z"/>
<path d="M6681 4226 c-3 -76 -55 -135 -136 -157 -27 -8 -26 -8 8 -4 20 2 50
13 66 24 37 27 74 101 68 138 l-4 28 -2 -29z"/>
<path d="M6281 4224 c0 -11 3 -14 6 -6 3 7 2 16 -1 19 -3 4 -6 -2 -5 -13z"/>
<path d="M6312 4200 c0 -19 2 -27 5 -17 2 9 2 25 0 35 -3 9 -5 1 -5 -18z"/>
<path d="M6292 4180 c0 -14 2 -19 5 -12 2 6 2 18 0 25 -3 6 -5 1 -5 -13z"/>
<path d="M6733 4160 c-5 -22 -7 -37 -2 -35 9 6 23 64 17 70 -2 3 -9 -13 -15
-35z"/>
<path d="M6340 4167 c0 -5 5 -17 11 -29 6 -11 8 -22 6 -25 -3 -3 -12 8 -21 24
-8 15 -15 24 -16 18 -1 -38 107 -136 149 -135 9 1 3 7 -14 15 -16 7 -24 14
-16 14 11 1 10 5 -5 17 -19 15 -19 16 1 9 11 -3 34 -8 50 -11 25 -3 23 -2 -8
8 -21 7 -54 29 -74 48 l-37 35 23 -32 c12 -18 18 -33 12 -33 -5 0 -21 19 -35
43 -14 23 -26 38 -26 34z m69 -82 c7 3 8 0 5 -9 -4 -10 -1 -16 7 -16 7 0 10
-3 6 -6 -8 -8 -67 34 -67 48 0 6 9 3 19 -6 11 -10 24 -15 30 -11z"/>
<path d="M6300 4147 c-1 -30 95 -137 123 -137 13 0 8 4 -46 44 -20 15 -46 44
-57 64 -10 20 -19 33 -20 29z"/>
<path d="M6655 4100 c-3 -6 -23 -19 -43 -30 -20 -10 -30 -19 -22 -20 15 0 92
59 78 60 -4 0 -10 -5 -13 -10z"/>
<path d="M6468 4043 c6 -2 18 -2 25 0 6 3 1 5 -13 5 -14 0 -19 -2 -12 -5z"/>
<path d="M6575 4030 c-13 -6 -15 -9 -5 -9 8 0 22 4 30 9 18 12 2 12 -25 0z"/>
<path d="M6513 4013 c9 -2 23 -2 30 0 6 3 -1 5 -18 5 -16 0 -22 -2 -12 -5z"/>
<path d="M6455 4000 c19 -8 113 -14 104 -6 -2 2 -31 6 -64 9 -36 3 -52 2 -40
-3z"/>
<path d="M6578 4003 c7 -3 16 -2 19 1 4 3 -2 6 -13 5 -11 0 -14 -3 -6 -6z"/>
<path d="M6082 4430 c0 -14 4 -38 8 -55 7 -27 8 -27 8 -5 0 14 -4 39 -8 55 -7
27 -8 27 -8 5z"/>
<path d="M6043 4393 c-8 -21 -35 -84 -60 -141 -25 -57 -43 -106 -40 -108 2 -2
25 46 52 108 50 121 62 141 51 93 -7 -35 8 -14 18 25 6 19 5 21 -3 10 -14 -20
-15 4 -1 31 6 10 8 19 5 19 -3 0 -13 -17 -22 -37z"/>
<path d="M6132 4395 c0 -16 2 -22 5 -12 2 9 2 23 0 30 -3 6 -5 -1 -5 -18z"/>
<path d="M6162 4350 c0 -14 4 -38 8 -55 7 -27 8 -27 8 -5 0 14 -4 39 -8 55 -7
27 -8 27 -8 5z"/>
<path d="M6142 4340 c0 -14 4 -38 8 -55 7 -27 8 -27 8 -5 0 14 -4 39 -8 55 -7
27 -8 27 -8 5z"/>
<path d="M6062 4325 c-17 -37 -14 -45 4 -12 9 16 14 31 11 33 -2 2 -9 -7 -15
-21z"/>
<path d="M6122 4330 c0 -14 4 -38 8 -55 7 -27 8 -27 8 -5 0 14 -4 39 -8 55 -7
27 -8 27 -8 5z"/>
<path d="M6102 4315 c0 -16 2 -22 5 -12 2 9 2 23 0 30 -3 6 -5 -1 -5 -18z"/>
<path d="M6070 4290 c-8 -19 -16 -27 -20 -20 -4 7 -16 -11 -29 -40 -12 -29
-20 -54 -18 -57 3 -2 13 16 22 42 10 25 20 43 23 40 3 -2 -12 -45 -33 -95 -22
-49 -42 -85 -45 -80 -4 6 -12 -1 -18 -15 -17 -36 -14 -45 4 -15 12 20 14 21
11 5 -3 -11 -8 -29 -12 -40 -5 -11 -5 -18 -2 -15 9 9 137 313 133 317 -2 2 -9
-10 -16 -27z"/>
<path d="M6017 4275 c-24 -50 -20 -58 4 -12 11 22 19 41 17 43 -3 2 -12 -12
-21 -31z"/>
<path d="M6112 4260 c0 -14 2 -19 5 -12 2 6 2 18 0 25 -3 6 -5 1 -5 -13z"/>
<path d="M6182 4235 c0 -16 2 -22 5 -12 2 9 2 23 0 30 -3 6 -5 -1 -5 -18z"/>
<path d="M6162 4225 c0 -16 2 -22 5 -12 2 9 2 23 0 30 -3 6 -5 -1 -5 -18z"/>
<path d="M6142 4215 c0 -16 2 -22 5 -12 2 9 2 23 0 30 -3 6 -5 -1 -5 -18z"/>
<path d="M6122 4210 c0 -14 4 -38 8 -55 7 -27 8 -27 8 -5 0 14 -4 39 -8 55 -7
27 -8 27 -8 5z"/>
<path d="M6192 4180 c0 -14 4 -38 8 -55 7 -27 8 -27 8 -5 0 14 -4 39 -8 55 -7
27 -8 27 -8 5z"/>
<path d="M6172 4170 c0 -14 4 -38 8 -55 7 -27 8 -27 8 -5 0 14 -4 39 -8 55 -7
27 -8 27 -8 5z"/>
<path d="M6152 4160 c0 -14 4 -38 8 -55 7 -27 8 -27 8 -5 0 14 -4 39 -8 55 -7
27 -8 27 -8 5z"/>
<path d="M6142 4095 c0 -16 2 -22 5 -12 2 9 2 23 0 30 -3 6 -5 -1 -5 -18z"/>
<path d="M6884 4378 l-29 -33 33 29 c17 17 32 31 32 33 0 8 -8 1 -36 -29z"/>
<path d="M6904 4368 l-29 -33 35 30 c19 17 37 31 39 33 2 1 0 2 -5 2 -6 0 -23
-15 -40 -32z"/>
<path d="M6914 4348 l-19 -23 23 19 c12 11 22 21 22 23 0 8 -8 2 -26 -19z"/>
<path d="M6921 4323 c-23 -29 -37 -70 -27 -80 3 -4 6 3 6 14 0 11 11 37 25 57
28 42 26 48 -4 9z"/>
<path d="M6865 4319 c-4 -6 -5 -12 -2 -15 2 -3 7 2 10 11 7 17 1 20 -8 4z"/>
<path d="M6885 4309 c-4 -6 -5 -12 -2 -15 2 -3 7 2 10 11 7 17 1 20 -8 4z"/>
<path d="M6822 4225 c0 -16 2 -22 5 -12 2 9 2 23 0 30 -3 6 -5 -1 -5 -18z"/>
<path d="M6841 4224 c0 -11 3 -14 6 -6 3 7 2 16 -1 19 -3 4 -6 -2 -5 -13z"/>
<path d="M6871 4184 c0 -11 3 -14 6 -6 3 7 2 16 -1 19 -3 4 -6 -2 -5 -13z"/>
<path d="M6850 4116 c0 -2 8 -10 18 -17 15 -13 16 -12 3 4 -13 16 -21 21 -21
13z"/>
<path d="M6957 4069 c7 -7 15 -10 18 -7 3 3 -2 9 -12 12 -14 6 -15 5 -6 -5z"/>
<path d="M7008 4073 c7 -3 16 -2 19 1 4 3 -2 6 -13 5 -11 0 -14 -3 -6 -6z"/>
<path d="M6988 4033 c7 -3 16 -2 19 1 4 3 -2 6 -13 5 -11 0 -14 -3 -6 -6z"/>
<path d="M7800 4433 c8 -3 24 -10 35 -15 20 -9 20 -9 1 6 -11 9 -27 16 -35 15
-14 0 -14 -1 -1 -6z"/>
<path d="M7795 4410 c27 -12 43 -12 25 0 -8 5 -22 9 -30 9 -10 0 -8 -3 5 -9z"/>
<path d="M7780 4393 c8 -3 27 -12 43 -20 15 -7 27 -11 27 -9 0 8 -58 36 -72
35 -9 0 -8 -2 2 -6z"/>
<path d="M7877 4386 c-4 -10 -1 -13 9 -9 7 3 14 1 14 -3 0 -5 10 -20 21 -34
l21 -25 -19 33 c-24 44 -39 57 -46 38z"/>
<path d="M7750 4225 c0 -88 4 -135 10 -135 44 0 106 62 116 116 12 62 -54 154
-110 154 -14 0 -16 -18 -16 -135z"/>
<path d="M7885 4316 c9 -14 21 -49 25 -78 7 -47 8 -49 9 -15 1 41 -19 100 -39
112 -7 4 -4 -4 5 -19z"/>
<path d="M7734 4235 c0 -55 1 -76 3 -47 2 29 2 74 0 100 -2 26 -3 2 -3 -53z"/>
<path d="M7953 4225 c0 -33 2 -45 4 -27 2 18 2 45 0 60 -2 15 -4 0 -4 -33z"/>
<path d="M7933 4225 c0 -27 2 -38 4 -22 2 15 2 37 0 50 -2 12 -4 0 -4 -28z"/>
<path d="M7893 4225 c0 -22 2 -30 4 -17 2 12 2 30 0 40 -3 9 -5 -1 -4 -23z"/>
<path d="M7865 4146 c-11 -17 -40 -41 -65 -53 -24 -13 -37 -23 -29 -23 32 0
134 89 118 104 -2 2 -13 -10 -24 -28z"/>
<path d="M7897 4161 c-4 -17 -3 -21 5 -13 5 5 8 16 6 23 -3 8 -7 3 -11 -10z"/>
<path d="M7935 4140 c-4 -12 -23 -41 -43 -64 -36 -41 -36 -41 -3 -11 33 30 66
83 58 92 -3 2 -8 -5 -12 -17z"/>
<path d="M7859 4104 c-14 -14 -43 -31 -65 -39 -21 -8 -31 -14 -21 -15 25 0 68
23 96 54 32 34 23 34 -10 0z"/>
<path d="M7884 4099 c-10 -12 -32 -30 -49 -40 -16 -11 -24 -19 -17 -19 12 0
103 79 91 80 -3 0 -14 -10 -25 -21z"/>
<path d="M7732 4030 c0 -14 2 -19 5 -12 2 6 2 18 0 25 -3 6 -5 1 -5 -13z"/>
<path d="M7778 4033 c7 -3 16 -2 19 1 4 3 -2 6 -13 5 -11 0 -14 -3 -6 -6z"/>
<path d="M7823 4030 c-13 -5 -23 -11 -23 -14 0 -7 40 6 46 15 6 10 6 10 -23
-1z"/>
<path d="M9085 4360 c-10 -11 -15 -20 -11 -20 4 0 16 9 28 20 12 11 17 20 11
20 -5 0 -18 -9 -28 -20z"/>
<path d="M9001 4144 c-1 -18 42 -76 69 -93 21 -13 19 -9 -10 25 -19 22 -40 49
-47 60 -6 10 -12 14 -12 8z"/>
<path d="M9060 4123 c0 -12 38 -48 45 -41 3 2 -6 15 -20 28 -14 13 -25 19 -25
13z"/>
<path d="M5727 3683 c-4 -3 -7 -19 -7 -34 0 -27 15 -39 51 -39 23 0 36 44 19
65 -13 15 -51 20 -63 8z"/>
<path d="M6236 3665 c-9 -23 -8 -25 9 -25 17 0 19 9 6 28 -7 11 -10 10 -15 -3z"/>
<path d="M6557 3684 c-11 -11 -8 -62 4 -69 5 -4 21 -4 35 -1 21 6 25 12 22 39
-2 26 -8 33 -28 35 -14 2 -29 0 -33 -4z"/>
<path d="M7197 3661 c-3 -14 0 -21 9 -21 16 0 18 9 5 28 -6 10 -10 9 -14 -7z"/>
<path d="M7330 3675 c0 -9 9 -15 25 -15 16 0 25 6 25 15 0 9 -9 15 -25 15 -16
0 -25 -6 -25 -15z"/>
<path d="M7655 3620 c3 -5 11 -10 16 -10 6 0 7 5 4 10 -3 6 -11 10 -16 10 -6
0 -7 -4 -4 -10z"/>
<path d="M8414 3676 c-12 -32 0 -61 28 -64 34 -4 54 27 38 58 -12 23 -58 27
-66 6z"/>
<path d="M8731 3690 c-13 -3 -29 -13 -35 -23 -23 -36 35 -75 70 -47 31 27 5
80 -35 70z"/>
</g>
</svg>
