<?xml version="1.0" encoding="UTF-8"?>
<!DOCTYPE svg PUBLIC "-//W3C//DTD SVG 1.1//EN" "http://www.w3.org/Graphics/SVG/1.1/DTD/svg11.dtd">
<svg xmlns="http://www.w3.org/2000/svg" version="1.1" width="283px" height="62px" style="shape-rendering:geometricPrecision; text-rendering:geometricPrecision; image-rendering:optimizeQuality; fill-rule:evenodd; clip-rule:evenodd" xmlns:xlink="http://www.w3.org/1999/xlink">
<g><path style="opacity:1" fill="#0a0a0a" d="M -0.5,-0.5 C 93.8333,-0.5 188.167,-0.5 282.5,-0.5C 282.5,20.1667 282.5,40.8333 282.5,61.5C 188.167,61.5 93.8333,61.5 -0.5,61.5C -0.5,40.8333 -0.5,20.1667 -0.5,-0.5 Z"/></g>
<g><path style="opacity:1" fill="#929292" d="M 239.5,20.5 C 246.167,20.5 252.833,20.5 259.5,20.5C 259.5,25.5 259.5,30.5 259.5,35.5C 257.5,35.5 255.5,35.5 253.5,35.5C 253.36,37.1238 254.027,38.2904 255.5,39C 251.5,39.6667 247.5,39.6667 243.5,39C 244.973,38.2904 245.64,37.1238 245.5,35.5C 243.5,35.5 241.5,35.5 239.5,35.5C 239.5,30.5 239.5,25.5 239.5,20.5 Z"/></g>
<g><path style="opacity:1" fill="#b0b0b0" d="M 30.5,23.5 C 29.8333,23.5 29.1667,23.5 28.5,23.5C 27.8549,22.1882 26.8549,21.1882 25.5,20.5C 24.0603,21.9524 22.3936,22.9524 20.5,23.5C 23.8333,18.1667 27.1667,18.1667 30.5,23.5 Z"/></g>
<g><path style="opacity:1" fill="#f6f6f6" d="M 28.5,23.5 C 30.1667,25.5 31.8333,27.5 33.5,29.5C 33.2529,32.9387 33.5863,36.272 34.5,39.5C 31.6146,39.8064 28.9479,39.4731 26.5,38.5C 25.8333,34.5 25.1667,34.5 24.5,38.5C 22.0521,39.4731 19.3854,39.8064 16.5,39.5C 17.4137,36.272 17.7471,32.9387 17.5,29.5C 19.3788,26.8852 21.7121,24.7186 24.5,23C 25.8193,22.805 27.1526,22.9717 28.5,23.5 Z"/></g>
<g><path style="opacity:1" fill="#dfdfdf" d="M 64.5,28.5 C 64.634,30.2915 64.3007,31.9582 63.5,33.5C 59.4803,37.6463 55.6469,37.313 52,32.5C 51.5,34.3333 50.3333,35.5 48.5,36C 46.1902,36.4966 43.8568,36.6633 41.5,36.5C 41.5,31.8333 41.5,27.1667 41.5,22.5C 45.7205,21.8076 49.3872,22.8076 52.5,25.5C 55.8927,21.9893 59.5593,21.656 63.5,24.5C 64.2458,25.7362 64.5792,27.0695 64.5,28.5 Z"/></g>
<g><path style="opacity:1" fill="#e0e0e0" d="M 65.5,36.5 C 65.5,33.8333 65.5,31.1667 65.5,28.5C 65.5,26.5 65.5,24.5 65.5,22.5C 68.8595,21.7904 70.6929,23.1238 71,26.5C 71.49,25.2068 71.6567,23.8734 71.5,22.5C 73.1667,22.5 74.8333,22.5 76.5,22.5C 76.3433,23.8734 76.51,25.2068 77,26.5C 79.0527,22.7084 82.2194,21.5418 86.5,23C 88.0284,24.6477 88.6951,26.6477 88.5,29C 88.7269,35.3928 85.7269,37.7262 79.5,36C 77.443,32.7002 76.443,32.8669 76.5,36.5C 75.5,36.5 74.5,36.5 73.5,36.5C 73.6633,34.1432 73.4966,31.8098 73,29.5C 72.5172,30.448 72.3505,31.448 72.5,32.5C 70.8762,32.6399 69.7096,31.9733 69,30.5C 68.5045,32.4727 68.3379,34.4727 68.5,36.5C 67.5,36.5 66.5,36.5 65.5,36.5 Z"/></g>
<g><path style="opacity:1" fill="#5fce76" d="M 108.5,22.5 C 110.527,22.3379 112.527,22.5045 114.5,23C 114.957,23.414 115.291,23.914 115.5,24.5C 113.979,24.8797 112.313,25.0464 110.5,25C 107.833,28 107.833,31 110.5,34C 112.313,33.9536 113.979,34.1203 115.5,34.5C 115.291,35.086 114.957,35.586 114.5,36C 106.424,37.0731 103.591,33.5731 106,25.5C 107.045,24.6266 107.878,23.6266 108.5,22.5 Z"/></g>
<g><path style="opacity:1" fill="#61d178" d="M 129.5,22.5 C 139.745,21.5697 142.745,25.7364 138.5,35C 135.649,36.2886 132.649,36.7886 129.5,36.5C 129.5,31.8333 129.5,27.1667 129.5,22.5 Z"/></g>
<g><path style="opacity:1" fill="#5ecb74" d="M 142.5,22.5 C 145.572,22.1826 148.572,22.5159 151.5,23.5C 149.955,24.4519 148.288,24.7852 146.5,24.5C 146.5,25.8333 146.5,27.1667 146.5,28.5C 153.167,29.1667 153.167,29.8333 146.5,30.5C 146.5,31.8333 146.5,33.1667 146.5,34.5C 148.288,34.2148 149.955,34.5481 151.5,35.5C 148.572,36.4841 145.572,36.8174 142.5,36.5C 142.5,31.8333 142.5,27.1667 142.5,22.5 Z"/></g>
<g><path style="opacity:1" fill="#090a09" d="M 241.5,22.5 C 246.833,22.5 252.167,22.5 257.5,22.5C 257.5,26.1667 257.5,29.8333 257.5,33.5C 252.167,33.5 246.833,33.5 241.5,33.5C 241.5,29.8333 241.5,26.1667 241.5,22.5 Z"/></g>
<g><path style="opacity:1" fill="#464646" d="M 28.5,23.5 C 27.1526,22.9717 25.8193,22.805 24.5,23C 21.7121,24.7186 19.3788,26.8852 17.5,29.5C 16.9569,29.44 16.6236,29.1067 16.5,28.5C 17.5244,27.1482 18.5244,25.8149 19.5,24.5C 19.5,23.8333 19.8333,23.5 20.5,23.5C 22.3936,22.9524 24.0603,21.9524 25.5,20.5C 26.8549,21.1882 27.8549,22.1882 28.5,23.5 Z"/></g>
<g><path style="opacity:1" fill="#5fcc74" d="M 242.5,23.5 C 247.167,23.5 251.833,23.5 256.5,23.5C 256.5,26.5 256.5,29.5 256.5,32.5C 251.833,32.5 247.167,32.5 242.5,32.5C 242.5,29.5 242.5,26.5 242.5,23.5 Z"/></g>
<g><path style="opacity:1" fill="#0d0d0d" d="M 44.5,24.5 C 48.254,25.8276 49.4207,28.4942 48,32.5C 47.3109,33.3567 46.4776,34.0233 45.5,34.5C 44.513,31.2317 44.1796,27.8984 44.5,24.5 Z"/></g>
<g><path style="opacity:1" fill="#141d15" d="M 132.5,24.5 C 137.151,25.1742 138.651,27.8408 137,32.5C 135.89,34.0368 134.39,34.7035 132.5,34.5C 132.5,31.1667 132.5,27.8333 132.5,24.5 Z"/></g>
<g><path style="opacity:1" fill="#2e2e2e" d="M 28.5,23.5 C 29.1667,23.5 29.8333,23.5 30.5,23.5C 31.4577,24.9616 32.6244,26.2949 34,27.5C 34.6917,28.4368 34.525,29.1034 33.5,29.5C 31.8333,27.5 30.1667,25.5 28.5,23.5 Z"/></g>
<g><path style="opacity:1" fill="#141414" d="M 57.5,24.5 C 58.4959,24.4142 59.3292,24.7476 60,25.5C 60.6667,28.1667 60.6667,30.8333 60,33.5C 59,34.8333 58,34.8333 57,33.5C 56.2642,30.408 56.4309,27.408 57.5,24.5 Z"/></g>
<g><path style="opacity:1" fill="#1d1d1d" d="M 81.5,24.5 C 84.7343,24.2366 86.0676,25.7366 85.5,29C 83.6103,36.1228 81.9436,36.1228 80.5,29C 80.6052,27.4085 80.9386,25.9085 81.5,24.5 Z"/></g>
<g><path style="opacity:1" fill="#61d178" d="M 120.5,22.5 C 127.88,22.5535 130.38,26.2201 128,33.5C 124.952,37.0095 121.619,37.3428 118,34.5C 117.333,31.1667 117.333,27.8333 118,24.5C 118.995,23.9341 119.828,23.2674 120.5,22.5 Z"/></g>
<g><path style="opacity:1" fill="#121812" d="M 121.5,24.5 C 122.822,24.33 123.989,24.6634 125,25.5C 125.667,27.8333 125.667,30.1667 125,32.5C 124.047,34.5922 122.714,34.9255 121,33.5C 120.264,30.408 120.431,27.408 121.5,24.5 Z"/></g>
<g><path style="opacity:1" fill="#5dc873" d="M 167.5,24.5 C 177.532,27.861 177.865,31.861 168.5,36.5C 168.167,36 167.833,35.5 167.5,35C 168.996,33.6693 170.329,32.1693 171.5,30.5C 169.497,28.8669 168.164,26.8669 167.5,24.5 Z"/></g>
<g><path style="opacity:1" fill="#acacac" d="M 19.5,24.5 C 18.5244,25.8149 17.5244,27.1482 16.5,28.5C 16.6236,29.1067 16.9569,29.44 17.5,29.5C 17.7471,32.9387 17.4137,36.272 16.5,39.5C 15.9987,36.105 14.9987,32.7717 13.5,29.5C 14.9308,27.0623 16.9308,25.3956 19.5,24.5 Z"/></g>
<g><path style="opacity:1" fill="#5bc471" d="M 99.5,24.5 C 100.756,24.4614 101.756,24.9614 102.5,26C 100.981,27.3513 99.6477,28.8513 98.5,30.5C 99.6477,32.1487 100.981,33.6487 102.5,35C 101.975,35.6924 101.308,36.1924 100.5,36.5C 98.1667,34.5 95.8333,32.5 93.5,30.5C 95.8545,28.8122 97.8545,26.8122 99.5,24.5 Z"/></g>
<g><path style="opacity:1" fill="#5f5f5f" d="M 64.5,28.5 C 64.8333,28.5 65.1667,28.5 65.5,28.5C 65.5,31.1667 65.5,33.8333 65.5,36.5C 64.8333,35.5 64.1667,34.5 63.5,33.5C 64.3007,31.9582 64.634,30.2915 64.5,28.5 Z"/></g>
<g><path style="opacity:1" fill="#5eca74" d="M 160.5,21.5 C 161.675,21.281 162.675,21.6143 163.5,22.5C 161.333,27.5 159.167,32.5 157,37.5C 155.951,38.5171 154.784,38.6838 153.5,38C 156.25,32.6671 158.584,27.1671 160.5,21.5 Z"/></g>
<g><path style="opacity:1" fill="#090a09" d="M 26.5,38.5 C 25.8333,38.5 25.1667,38.5 24.5,38.5C 25.1667,34.5 25.8333,34.5 26.5,38.5 Z"/></g>
<g><path style="opacity:1" fill="#a9a9a9" d="M 30.5,23.5 C 33.4073,24.7341 35.7407,26.7341 37.5,29.5C 36.0013,32.7717 35.0013,36.105 34.5,39.5C 33.5863,36.272 33.2529,32.9387 33.5,29.5C 34.525,29.1034 34.6917,28.4368 34,27.5C 32.6244,26.2949 31.4577,24.9616 30.5,23.5 Z"/></g>
<g><path style="opacity:1" fill="#090a09" d="M 247.5,35.5 C 248.978,35.238 250.311,35.5713 251.5,36.5C 250.833,36.8333 250.167,37.1667 249.5,37.5C 248.287,37.2528 247.62,36.5862 247.5,35.5 Z"/></g>
<g><path style="opacity:1" fill="#adacac" d="M 24.5,38.5 C 25.1667,38.5 25.8333,38.5 26.5,38.5C 28.9479,39.4731 31.6146,39.8064 34.5,39.5C 28.5,40.8333 22.5,40.8333 16.5,39.5C 19.3854,39.8064 22.0521,39.4731 24.5,38.5 Z"/></g>
<g><path style="opacity:1" fill="#868686" d="M 184.5,15.5 C 201.503,15.3334 218.503,15.5001 235.5,16C 236.333,16.8333 237.167,17.6667 238,18.5C 238.667,26.5 238.667,34.5 238,42.5C 237.167,43.3333 236.333,44.1667 235.5,45C 218.5,45.6667 201.5,45.6667 184.5,45C 183.667,44.1667 182.833,43.3333 182,42.5C 181.333,34.5 181.333,26.5 182,18.5C 183.045,17.6266 183.878,16.6266 184.5,15.5 Z"/></g>
<g><path style="opacity:1" fill="#0e0e0e" d="M 184.5,17.5 C 201.503,17.3334 218.503,17.5001 235.5,18C 236.648,26.0876 236.815,34.2543 236,42.5C 218.907,43.6581 201.741,43.8247 184.5,43C 183.181,34.5001 183.181,26.0001 184.5,17.5 Z"/></g>
<g><path style="opacity:1" fill="#181818" d="M 220.5,25.5 C 221.833,28.1667 221.833,30.8333 220.5,33.5C 216.243,35.5257 213.909,34.1924 213.5,29.5C 213.909,24.8076 216.243,23.4743 220.5,25.5 Z"/></g>
<g><path style="opacity:1" fill="#e3e3e3" d="M 222.5,22.5 C 223.5,22.5 224.5,22.5 225.5,22.5C 225.5,24.5 225.5,26.5 225.5,28.5C 226.833,28.5 228.167,28.5 229.5,28.5C 229.5,26.5 229.5,24.5 229.5,22.5C 230.833,22.5 232.167,22.5 233.5,22.5C 233.5,27.1667 233.5,31.8333 233.5,36.5C 232.167,36.5 230.833,36.5 229.5,36.5C 229.5,34.5 229.5,32.5 229.5,30.5C 228.167,30.5 226.833,30.5 225.5,30.5C 225.5,32.5 225.5,34.5 225.5,36.5C 224.5,36.5 223.5,36.5 222.5,36.5C 222.5,31.8333 222.5,27.1667 222.5,22.5 Z"/></g>
<g><path style="opacity:1" fill="#5d5d5d" d="M 222.5,22.5 C 222.5,27.1667 222.5,31.8333 222.5,36.5C 221.833,36.1667 221.167,35.8333 220.5,35.5C 220.5,34.8333 220.5,34.1667 220.5,33.5C 221.833,30.8333 221.833,28.1667 220.5,25.5C 220.5,24.8333 220.5,24.1667 220.5,23.5C 221.167,23.1667 221.833,22.8333 222.5,22.5 Z"/></g>
<g><path style="opacity:1" fill="#e5e5e5" d="M 220.5,23.5 C 220.5,24.1667 220.5,24.8333 220.5,25.5C 216.243,23.4743 213.909,24.8076 213.5,29.5C 213.909,34.1924 216.243,35.5257 220.5,33.5C 220.5,34.1667 220.5,34.8333 220.5,35.5C 212.299,37.9828 208.799,34.9828 210,26.5C 212.806,22.6117 216.306,21.6117 220.5,23.5 Z"/></g>
<g><path style="opacity:1" fill="#f3f3f3" d="M 199.5,22.5 C 202.572,22.1826 205.572,22.5159 208.5,23.5C 206.604,24.4656 204.604,24.7989 202.5,24.5C 202.5,25.8333 202.5,27.1667 202.5,28.5C 210.5,29.1667 210.5,29.8333 202.5,30.5C 202.5,31.8333 202.5,33.1667 202.5,34.5C 204.604,34.2011 206.604,34.5344 208.5,35.5C 205.572,36.4841 202.572,36.8174 199.5,36.5C 199.5,31.8333 199.5,27.1667 199.5,22.5 Z"/></g>
<g><path style="opacity:1" fill="#e1e1e1" d="M 185.5,22.5 C 189.555,22.1758 193.555,22.5091 197.5,23.5C 196.311,24.4287 194.978,24.762 193.5,24.5C 193.5,28.5 193.5,32.5 193.5,36.5C 192.167,36.5 190.833,36.5 189.5,36.5C 189.5,32.5 189.5,28.5 189.5,24.5C 187.517,24.8432 186.183,24.1765 185.5,22.5 Z"/></g>
</svg>
